<?xml version="1.0" encoding="UTF-8" standalone="no"?>
<!DOCTYPE svg PUBLIC "-//W3C//DTD SVG 1.1//EN"
 "http://www.w3.org/Graphics/SVG/1.1/DTD/svg11.dtd">
<!-- Generated by graphviz version 2.43.0 (0)
 -->
<!-- Title: %3 Pages: 1 -->
<svg width="1211pt" height="2298pt"
 viewBox="0.00 0.00 1211.00 2298.00" xmlns="http://www.w3.org/2000/svg" xmlns:xlink="http://www.w3.org/1999/xlink">
<g id="graph0" class="graph" transform="scale(1 1) rotate(0) translate(4 2294)">
<title>%3</title>
<polygon fill="white" stroke="transparent" points="-4,4 -4,-2294 1207,-2294 1207,4 -4,4"/>
<!-- 0 -->
<g id="node1" class="node">
<title>0</title>
<polygon fill="none" stroke="black" points="511.5,-2253.5 511.5,-2289.5 691.5,-2289.5 691.5,-2253.5 511.5,-2253.5"/>
<text text-anchor="middle" x="560" y="-2268.4" font-family="Times,serif" font-size="12.00">0:DataFrame</text>
<polyline fill="none" stroke="black" points="608.5,-2253.5 608.5,-2289.5 "/>
<text text-anchor="middle" x="650" y="-2268.4" font-family="Times,serif" font-size="12.00">main_table</text>
</g>
<!-- 1 -->
<g id="node2" class="node">
<title>1</title>
<polygon fill="none" stroke="black" points="442,-2180.5 442,-2216.5 761,-2216.5 761,-2180.5 442,-2180.5"/>
<text text-anchor="middle" x="486" y="-2195.4" font-family="Times,serif" font-size="12.00">1:type_infer</text>
<polyline fill="none" stroke="black" points="530,-2180.5 530,-2216.5 "/>
<text text-anchor="middle" x="645.5" y="-2195.4" font-family="Times,serif" font-size="12.00">[(&#39;reply&#39;, [&#39;is_integer&#39;, &#39;is_numeric&#39;])]</text>
</g>
<!-- 0&#45;&gt;1 -->
<g id="edge1" class="edge">
<title>0&#45;&gt;1</title>
<path fill="none" stroke="black" d="M601.5,-2253.31C601.5,-2245.29 601.5,-2235.55 601.5,-2226.57"/>
<polygon fill="black" stroke="black" points="605,-2226.53 601.5,-2216.53 598,-2226.53 605,-2226.53"/>
</g>
<!-- 2 -->
<g id="node3" class="node">
<title>2</title>
<polygon fill="none" stroke="black" points="315.5,-2107.5 315.5,-2143.5 887.5,-2143.5 887.5,-2107.5 315.5,-2107.5"/>
<text text-anchor="middle" x="349" y="-2122.4" font-family="Times,serif" font-size="12.00">2:astype</text>
<polyline fill="none" stroke="black" points="382.5,-2107.5 382.5,-2143.5 "/>
<text text-anchor="middle" x="635" y="-2122.4" font-family="Times,serif" font-size="12.00">[&quot;reply: [(&#39;reply&#39;, &lt;class &#39;pyrecdp.primitives.generators.type.IntTransformer&#39;&gt;)]&quot;]</text>
</g>
<!-- 1&#45;&gt;2 -->
<g id="edge2" class="edge">
<title>1&#45;&gt;2</title>
<path fill="none" stroke="black" d="M601.5,-2180.31C601.5,-2172.29 601.5,-2162.55 601.5,-2153.57"/>
<polygon fill="black" stroke="black" points="605,-2153.53 601.5,-2143.53 598,-2153.53 605,-2153.53"/>
</g>
<!-- 3 -->
<g id="node4" class="node">
<title>3</title>
<polygon fill="none" stroke="black" points="531.5,-2034.5 531.5,-2070.5 671.5,-2070.5 671.5,-2034.5 531.5,-2034.5"/>
<text text-anchor="middle" x="561" y="-2049.4" font-family="Times,serif" font-size="12.00">3:fillna</text>
<polyline fill="none" stroke="black" points="590.5,-2034.5 590.5,-2070.5 "/>
<text text-anchor="middle" x="631" y="-2049.4" font-family="Times,serif" font-size="12.00">[&#39;reply: &#45;1&#39;]</text>
</g>
<!-- 2&#45;&gt;3 -->
<g id="edge3" class="edge">
<title>2&#45;&gt;3</title>
<path fill="none" stroke="black" d="M601.5,-2107.31C601.5,-2099.29 601.5,-2089.55 601.5,-2080.57"/>
<polygon fill="black" stroke="black" points="605,-2080.53 601.5,-2070.53 598,-2080.53 605,-2080.53"/>
</g>
<!-- 4 -->
<g id="node5" class="node">
<title>4</title>
<polygon fill="none" stroke="black" points="511.5,-1961.5 511.5,-1997.5 691.5,-1997.5 691.5,-1961.5 511.5,-1961.5"/>
<text text-anchor="middle" x="560" y="-1976.4" font-family="Times,serif" font-size="12.00">4:DataFrame</text>
<polyline fill="none" stroke="black" points="608.5,-1961.5 608.5,-1997.5 "/>
<text text-anchor="middle" x="650" y="-1976.4" font-family="Times,serif" font-size="12.00">main_table</text>
</g>
<!-- 3&#45;&gt;4 -->
<g id="edge4" class="edge">
<title>3&#45;&gt;4</title>
<path fill="none" stroke="black" d="M601.5,-2034.31C601.5,-2026.29 601.5,-2016.55 601.5,-2007.57"/>
<polygon fill="black" stroke="black" points="605,-2007.53 601.5,-1997.53 598,-2007.53 605,-2007.53"/>
</g>
<!-- 5 -->
<g id="node6" class="node">
<title>5</title>
<polygon fill="none" stroke="black" points="331.5,-1642.5 331.5,-1924.5 871.5,-1924.5 871.5,-1642.5 331.5,-1642.5"/>
<text text-anchor="middle" x="375.5" y="-1780.4" font-family="Times,serif" font-size="12.00">5:type_infer</text>
<polyline fill="none" stroke="black" points="419.5,-1642.5 419.5,-1924.5 "/>
<text text-anchor="start" x="427.5" y="-1896.9" font-family="Times,serif" font-size="12.00">(&#39;text_tokens&#39;, [&#39;is_text&#39;, &#39;is_encoded&#39;, &#39;is_string&#39;])</text>
<text text-anchor="start" x="427.5" y="-1883.9" font-family="Times,serif" font-size="12.00">(&#39;hashtags&#39;, [&#39;is_string&#39;, &#39;is_categorical&#39;])</text>
<text text-anchor="start" x="427.5" y="-1870.9" font-family="Times,serif" font-size="12.00">(&#39;tweet_id&#39;, [&#39;is_string&#39;])</text>
<text text-anchor="start" x="427.5" y="-1857.9" font-family="Times,serif" font-size="12.00">(&#39;present_media&#39;, [&#39;is_string&#39;, &#39;is_categorical&#39;, &#39;is_onehot&#39;])</text>
<text text-anchor="start" x="427.5" y="-1844.9" font-family="Times,serif" font-size="12.00">(&#39;present_links&#39;, [&#39;is_string&#39;, &#39;is_categorical&#39;])</text>
<text text-anchor="start" x="427.5" y="-1831.9" font-family="Times,serif" font-size="12.00">(&#39;present_domains&#39;, [&#39;is_string&#39;, &#39;is_categorical&#39;])</text>
<text text-anchor="start" x="427.5" y="-1818.9" font-family="Times,serif" font-size="12.00">(&#39;tweet_type&#39;, [&#39;is_string&#39;, &#39;is_categorical&#39;, &#39;is_onehot&#39;])</text>
<text text-anchor="start" x="427.5" y="-1805.9" font-family="Times,serif" font-size="12.00">(&#39;language&#39;, [&#39;is_string&#39;, &#39;is_categorical&#39;])</text>
<text text-anchor="start" x="427.5" y="-1792.9" font-family="Times,serif" font-size="12.00">(&#39;tweet_timestamp&#39;, [&#39;is_string&#39;, &#39;is_datetime&#39;])</text>
<text text-anchor="start" x="427.5" y="-1779.9" font-family="Times,serif" font-size="12.00">(&#39;engaged_with_user_id&#39;, [&#39;is_string&#39;])</text>
<text text-anchor="start" x="427.5" y="-1766.9" font-family="Times,serif" font-size="12.00">(&#39;engaged_with_user_follower_count&#39;, [&#39;is_integer&#39;, &#39;is_numeric&#39;])</text>
<text text-anchor="start" x="427.5" y="-1753.9" font-family="Times,serif" font-size="12.00">(&#39;engaged_with_user_following_count&#39;, [&#39;is_integer&#39;, &#39;is_numeric&#39;])</text>
<text text-anchor="start" x="427.5" y="-1740.9" font-family="Times,serif" font-size="12.00">(&#39;engaged_with_user_is_verified&#39;, [&#39;is_integer&#39;, &#39;is_boolean&#39;, &#39;is_numeric&#39;])</text>
<text text-anchor="start" x="427.5" y="-1727.9" font-family="Times,serif" font-size="12.00">(&#39;engaged_with_user_account_creation&#39;, [&#39;is_string&#39;, &#39;is_datetime&#39;])</text>
<text text-anchor="start" x="427.5" y="-1714.9" font-family="Times,serif" font-size="12.00">(&#39;engaging_user_id&#39;, [&#39;is_string&#39;])</text>
<text text-anchor="start" x="427.5" y="-1701.9" font-family="Times,serif" font-size="12.00">(&#39;engaging_user_follower_count&#39;, [&#39;is_integer&#39;, &#39;is_numeric&#39;])</text>
<text text-anchor="start" x="427.5" y="-1688.9" font-family="Times,serif" font-size="12.00">(&#39;enaging_user_following_count&#39;, [&#39;is_integer&#39;, &#39;is_numeric&#39;])</text>
<text text-anchor="start" x="427.5" y="-1675.9" font-family="Times,serif" font-size="12.00">(&#39;enaging_user_is_verified&#39;, [&#39;is_integer&#39;, &#39;is_boolean&#39;, &#39;is_numeric&#39;])</text>
<text text-anchor="start" x="427.5" y="-1662.9" font-family="Times,serif" font-size="12.00">(&#39;engaging_user_account_creation&#39;, [&#39;is_string&#39;, &#39;is_datetime&#39;])</text>
<text text-anchor="start" x="427.5" y="-1649.9" font-family="Times,serif" font-size="12.00">(&#39;engagee_follows_engager&#39;, [&#39;is_integer&#39;, &#39;is_boolean&#39;, &#39;is_numeric&#39;])</text>
</g>
<!-- 4&#45;&gt;5 -->
<g id="edge5" class="edge">
<title>4&#45;&gt;5</title>
<path fill="none" stroke="black" d="M601.5,-1961.28C601.5,-1954.12 601.5,-1945.08 601.5,-1934.91"/>
<polygon fill="black" stroke="black" points="605,-1934.83 601.5,-1924.83 598,-1934.83 605,-1934.83"/>
</g>
<!-- 6 -->
<g id="node7" class="node">
<title>6</title>
<polygon fill="none" stroke="black" points="138.5,-1492.5 138.5,-1605.5 1064.5,-1605.5 1064.5,-1492.5 138.5,-1492.5"/>
<text text-anchor="middle" x="172" y="-1545.9" font-family="Times,serif" font-size="12.00">6:astype</text>
<polyline fill="none" stroke="black" points="205.5,-1492.5 205.5,-1605.5 "/>
<text text-anchor="start" x="213.5" y="-1577.9" font-family="Times,serif" font-size="12.00">engaged_with_user_follower_count: [(&#39;engaged_with_user_follower_count&#39;, &lt;class &#39;pyrecdp.primitives.generators.type.IntTransformer&#39;&gt;)]</text>
<text text-anchor="start" x="213.5" y="-1564.9" font-family="Times,serif" font-size="12.00">engaged_with_user_following_count: [(&#39;engaged_with_user_following_count&#39;, &lt;class &#39;pyrecdp.primitives.generators.type.IntTransformer&#39;&gt;)]</text>
<text text-anchor="start" x="213.5" y="-1551.9" font-family="Times,serif" font-size="12.00">engaged_with_user_is_verified: [(&#39;engaged_with_user_is_verified&#39;, &lt;class &#39;pyrecdp.primitives.generators.type.IntTransformer&#39;&gt;)]</text>
<text text-anchor="start" x="213.5" y="-1538.9" font-family="Times,serif" font-size="12.00">engaging_user_follower_count: [(&#39;engaging_user_follower_count&#39;, &lt;class &#39;pyrecdp.primitives.generators.type.IntTransformer&#39;&gt;)]</text>
<text text-anchor="start" x="213.5" y="-1525.9" font-family="Times,serif" font-size="12.00">enaging_user_following_count: [(&#39;enaging_user_following_count&#39;, &lt;class &#39;pyrecdp.primitives.generators.type.IntTransformer&#39;&gt;)]</text>
<text text-anchor="start" x="213.5" y="-1512.9" font-family="Times,serif" font-size="12.00">enaging_user_is_verified: [(&#39;enaging_user_is_verified&#39;, &lt;class &#39;pyrecdp.primitives.generators.type.IntTransformer&#39;&gt;)]</text>
<text text-anchor="start" x="213.5" y="-1499.9" font-family="Times,serif" font-size="12.00">engagee_follows_engager: [(&#39;engagee_follows_engager&#39;, &lt;class &#39;pyrecdp.primitives.generators.type.IntTransformer&#39;&gt;)]</text>
</g>
<!-- 5&#45;&gt;6 -->
<g id="edge6" class="edge">
<title>5&#45;&gt;6</title>
<path fill="none" stroke="black" d="M601.5,-1642.22C601.5,-1633.09 601.5,-1624.16 601.5,-1615.68"/>
<polygon fill="black" stroke="black" points="605,-1615.57 601.5,-1605.57 598,-1615.57 605,-1615.57"/>
</g>
<!-- 7 -->
<g id="node8" class="node">
<title>7</title>
<polygon fill="none" stroke="black" points="443.5,-1173.5 443.5,-1455.5 759.5,-1455.5 759.5,-1173.5 443.5,-1173.5"/>
<text text-anchor="middle" x="473" y="-1311.4" font-family="Times,serif" font-size="12.00">7:fillna</text>
<polyline fill="none" stroke="black" points="502.5,-1173.5 502.5,-1455.5 "/>
<text text-anchor="start" x="510.5" y="-1427.9" font-family="Times,serif" font-size="12.00">text_tokens: </text>
<text text-anchor="start" x="510.5" y="-1414.9" font-family="Times,serif" font-size="12.00">hashtags: </text>
<text text-anchor="start" x="510.5" y="-1401.9" font-family="Times,serif" font-size="12.00">tweet_id: </text>
<text text-anchor="start" x="510.5" y="-1388.9" font-family="Times,serif" font-size="12.00">present_media: </text>
<text text-anchor="start" x="510.5" y="-1375.9" font-family="Times,serif" font-size="12.00">present_links: </text>
<text text-anchor="start" x="510.5" y="-1362.9" font-family="Times,serif" font-size="12.00">present_domains: </text>
<text text-anchor="start" x="510.5" y="-1349.9" font-family="Times,serif" font-size="12.00">tweet_type: </text>
<text text-anchor="start" x="510.5" y="-1336.9" font-family="Times,serif" font-size="12.00">language: </text>
<text text-anchor="start" x="510.5" y="-1323.9" font-family="Times,serif" font-size="12.00">tweet_timestamp: 0</text>
<text text-anchor="start" x="510.5" y="-1310.9" font-family="Times,serif" font-size="12.00">engaged_with_user_id: </text>
<text text-anchor="start" x="510.5" y="-1297.9" font-family="Times,serif" font-size="12.00">engaged_with_user_follower_count: &#45;1</text>
<text text-anchor="start" x="510.5" y="-1284.9" font-family="Times,serif" font-size="12.00">engaged_with_user_following_count: &#45;1</text>
<text text-anchor="start" x="510.5" y="-1271.9" font-family="Times,serif" font-size="12.00">engaged_with_user_is_verified: False</text>
<text text-anchor="start" x="510.5" y="-1258.9" font-family="Times,serif" font-size="12.00">engaged_with_user_account_creation: 0</text>
<text text-anchor="start" x="510.5" y="-1245.9" font-family="Times,serif" font-size="12.00">engaging_user_id: </text>
<text text-anchor="start" x="510.5" y="-1232.9" font-family="Times,serif" font-size="12.00">engaging_user_follower_count: &#45;1</text>
<text text-anchor="start" x="510.5" y="-1219.9" font-family="Times,serif" font-size="12.00">enaging_user_following_count: &#45;1</text>
<text text-anchor="start" x="510.5" y="-1206.9" font-family="Times,serif" font-size="12.00">enaging_user_is_verified: False</text>
<text text-anchor="start" x="510.5" y="-1193.9" font-family="Times,serif" font-size="12.00">engaging_user_account_creation: 0</text>
<text text-anchor="start" x="510.5" y="-1180.9" font-family="Times,serif" font-size="12.00">engagee_follows_engager: False</text>
</g>
<!-- 6&#45;&gt;7 -->
<g id="edge7" class="edge">
<title>6&#45;&gt;7</title>
<path fill="none" stroke="black" d="M601.5,-1492.31C601.5,-1484.02 601.5,-1475.17 601.5,-1466"/>
<polygon fill="black" stroke="black" points="605,-1465.94 601.5,-1455.94 598,-1465.94 605,-1465.94"/>
</g>
<!-- 8 -->
<g id="node9" class="node">
<title>8</title>
<polygon fill="none" stroke="black" points="215.5,-1100.5 215.5,-1136.5 987.5,-1136.5 987.5,-1100.5 215.5,-1100.5"/>
<text text-anchor="middle" x="266" y="-1115.4" font-family="Times,serif" font-size="12.00">8:bert_decode</text>
<polyline fill="none" stroke="black" points="316.5,-1100.5 316.5,-1136.5 "/>
<text text-anchor="middle" x="652" y="-1115.4" font-family="Times,serif" font-size="12.00">[&quot;text_tokens: [(&#39;text_tokens__decoded&#39;, &lt;class &#39;pyrecdp.primitives.generators.nlp.BertTokenizerDecode&#39;&gt;)]&quot;]</text>
</g>
<!-- 7&#45;&gt;8 -->
<g id="edge8" class="edge">
<title>7&#45;&gt;8</title>
<path fill="none" stroke="black" d="M601.5,-1173.28C601.5,-1163.58 601.5,-1154.59 601.5,-1146.86"/>
<polygon fill="black" stroke="black" points="605,-1146.82 601.5,-1136.82 598,-1146.82 605,-1146.82"/>
</g>
<!-- 9 -->
<g id="node10" class="node">
<title>9</title>
<polygon fill="none" stroke="black" points="97.5,-1002.5 97.5,-1063.5 1105.5,-1063.5 1105.5,-1002.5 97.5,-1002.5"/>
<text text-anchor="middle" x="131" y="-1029.9" font-family="Times,serif" font-size="12.00">9:astype</text>
<polyline fill="none" stroke="black" points="164.5,-1002.5 164.5,-1063.5 "/>
<text text-anchor="start" x="172.5" y="-1035.9" font-family="Times,serif" font-size="12.00">tweet_timestamp: [(&#39;tweet_timestamp&#39;, &lt;class &#39;pyrecdp.primitives.generators.datetime.DatetimeTransformer&#39;&gt;)]</text>
<text text-anchor="start" x="172.5" y="-1022.9" font-family="Times,serif" font-size="12.00">engaged_with_user_account_creation: [(&#39;engaged_with_user_account_creation&#39;, &lt;class &#39;pyrecdp.primitives.generators.datetime.DatetimeTransformer&#39;&gt;)]</text>
<text text-anchor="start" x="172.5" y="-1009.9" font-family="Times,serif" font-size="12.00">engaging_user_account_creation: [(&#39;engaging_user_account_creation&#39;, &lt;class &#39;pyrecdp.primitives.generators.datetime.DatetimeTransformer&#39;&gt;)]</text>
</g>
<!-- 8&#45;&gt;9 -->
<g id="edge9" class="edge">
<title>8&#45;&gt;9</title>
<path fill="none" stroke="black" d="M601.5,-1100.2C601.5,-1092.56 601.5,-1083.24 601.5,-1074.03"/>
<polygon fill="black" stroke="black" points="605,-1073.78 601.5,-1063.78 598,-1073.78 605,-1073.78"/>
</g>
<!-- 10 -->
<g id="node11" class="node">
<title>10</title>
<polygon fill="none" stroke="black" points="124,-667.5 124,-965.5 1079,-965.5 1079,-667.5 124,-667.5"/>
<text text-anchor="middle" x="192.5" y="-813.4" font-family="Times,serif" font-size="12.00">10:datetime_feature</text>
<polyline fill="none" stroke="black" points="261,-667.5 261,-965.5 "/>
<text text-anchor="start" x="269" y="-937.9" font-family="Times,serif" font-size="12.00">tweet_timestamp: </text>
<text text-anchor="start" x="269" y="-924.9" font-family="Times,serif" font-size="12.00">(&#39;tweet_timestamp__day&#39;, &lt;class &#39;featuretools.primitives.standard.transform.datetime.day.Day&#39;&gt;)</text>
<text text-anchor="start" x="269" y="-911.9" font-family="Times,serif" font-size="12.00">(&#39;tweet_timestamp__month&#39;, &lt;class &#39;featuretools.primitives.standard.transform.datetime.month.Month&#39;&gt;)</text>
<text text-anchor="start" x="269" y="-898.9" font-family="Times,serif" font-size="12.00">(&#39;tweet_timestamp__weekday&#39;, &lt;class &#39;featuretools.primitives.standard.transform.datetime.weekday.Weekday&#39;&gt;)</text>
<text text-anchor="start" x="269" y="-885.9" font-family="Times,serif" font-size="12.00">(&#39;tweet_timestamp__year&#39;, &lt;class &#39;featuretools.primitives.standard.transform.datetime.year.Year&#39;&gt;)</text>
<text text-anchor="start" x="269" y="-872.9" font-family="Times,serif" font-size="12.00">(&#39;tweet_timestamp__hour&#39;, &lt;class &#39;featuretools.primitives.standard.transform.datetime.hour.Hour&#39;&gt;)</text>
<text text-anchor="start" x="269" y="-845.9" font-family="Times,serif" font-size="12.00">engaged_with_user_account_creation: </text>
<text text-anchor="start" x="269" y="-832.9" font-family="Times,serif" font-size="12.00">(&#39;engaged_with_user_account_creation__day&#39;, &lt;class &#39;featuretools.primitives.standard.transform.datetime.day.Day&#39;&gt;)</text>
<text text-anchor="start" x="269" y="-819.9" font-family="Times,serif" font-size="12.00">(&#39;engaged_with_user_account_creation__month&#39;, &lt;class &#39;featuretools.primitives.standard.transform.datetime.month.Month&#39;&gt;)</text>
<text text-anchor="start" x="269" y="-806.9" font-family="Times,serif" font-size="12.00">(&#39;engaged_with_user_account_creation__weekday&#39;, &lt;class &#39;featuretools.primitives.standard.transform.datetime.weekday.Weekday&#39;&gt;)</text>
<text text-anchor="start" x="269" y="-793.9" font-family="Times,serif" font-size="12.00">(&#39;engaged_with_user_account_creation__year&#39;, &lt;class &#39;featuretools.primitives.standard.transform.datetime.year.Year&#39;&gt;)</text>
<text text-anchor="start" x="269" y="-780.9" font-family="Times,serif" font-size="12.00">(&#39;engaged_with_user_account_creation__hour&#39;, &lt;class &#39;featuretools.primitives.standard.transform.datetime.hour.Hour&#39;&gt;)</text>
<text text-anchor="start" x="269" y="-753.9" font-family="Times,serif" font-size="12.00">engaging_user_account_creation: </text>
<text text-anchor="start" x="269" y="-740.9" font-family="Times,serif" font-size="12.00">(&#39;engaging_user_account_creation__day&#39;, &lt;class &#39;featuretools.primitives.standard.transform.datetime.day.Day&#39;&gt;)</text>
<text text-anchor="start" x="269" y="-727.9" font-family="Times,serif" font-size="12.00">(&#39;engaging_user_account_creation__month&#39;, &lt;class &#39;featuretools.primitives.standard.transform.datetime.month.Month&#39;&gt;)</text>
<text text-anchor="start" x="269" y="-714.9" font-family="Times,serif" font-size="12.00">(&#39;engaging_user_account_creation__weekday&#39;, &lt;class &#39;featuretools.primitives.standard.transform.datetime.weekday.Weekday&#39;&gt;)</text>
<text text-anchor="start" x="269" y="-701.9" font-family="Times,serif" font-size="12.00">(&#39;engaging_user_account_creation__year&#39;, &lt;class &#39;featuretools.primitives.standard.transform.datetime.year.Year&#39;&gt;)</text>
<text text-anchor="start" x="269" y="-688.9" font-family="Times,serif" font-size="12.00">(&#39;engaging_user_account_creation__hour&#39;, &lt;class &#39;featuretools.primitives.standard.transform.datetime.hour.Hour&#39;&gt;)</text>
</g>
<!-- 9&#45;&gt;10 -->
<g id="edge10" class="edge">
<title>9&#45;&gt;10</title>
<path fill="none" stroke="black" d="M601.5,-1002.17C601.5,-994.49 601.5,-985.66 601.5,-976.12"/>
<polygon fill="black" stroke="black" points="605,-975.95 601.5,-965.95 598,-975.95 605,-975.95"/>
</g>
<!-- 11 -->
<g id="node12" class="node">
<title>11</title>
<polygon fill="none" stroke="black" points="13,-502.5 13,-630.5 1190,-630.5 1190,-502.5 13,-502.5"/>
<text text-anchor="middle" x="66.5" y="-563.4" font-family="Times,serif" font-size="12.00">11:text_feature</text>
<polyline fill="none" stroke="black" points="120,-502.5 120,-630.5 "/>
<text text-anchor="start" x="128" y="-602.9" font-family="Times,serif" font-size="12.00">text_tokens: </text>
<text text-anchor="start" x="128" y="-589.9" font-family="Times,serif" font-size="12.00">(&#39;text_tokens__number_of_unique_words&#39;, &lt;class &#39;featuretools.primitives.standard.transform.natural_language.number_of_unique_words.NumberOfUniqueWords&#39;&gt;)</text>
<text text-anchor="start" x="128" y="-576.9" font-family="Times,serif" font-size="12.00">(&#39;text_tokens__num_words&#39;, &lt;class &#39;featuretools.primitives.standard.transform.natural_language.num_words.NumWords&#39;&gt;)</text>
<text text-anchor="start" x="128" y="-549.9" font-family="Times,serif" font-size="12.00">text_tokens__decoded: </text>
<text text-anchor="start" x="128" y="-536.9" font-family="Times,serif" font-size="12.00">(&#39;text_tokens__decoded__number_of_unique_words&#39;, &lt;class &#39;featuretools.primitives.standard.transform.natural_language.number_of_unique_words.NumberOfUniqueWords&#39;&gt;)</text>
<text text-anchor="start" x="128" y="-523.9" font-family="Times,serif" font-size="12.00">(&#39;text_tokens__decoded__num_words&#39;, &lt;class &#39;featuretools.primitives.standard.transform.natural_language.num_words.NumWords&#39;&gt;)</text>
</g>
<!-- 10&#45;&gt;11 -->
<g id="edge11" class="edge">
<title>10&#45;&gt;11</title>
<path fill="none" stroke="black" d="M601.5,-667.3C601.5,-658.25 601.5,-649.39 601.5,-640.9"/>
<polygon fill="black" stroke="black" points="605,-640.75 601.5,-630.75 598,-640.75 605,-640.75"/>
</g>
<!-- 12 -->
<g id="node13" class="node">
<title>12</title>
<polygon fill="none" stroke="black" points="0,-429.5 0,-465.5 1203,-465.5 1203,-429.5 0,-429.5"/>
<text text-anchor="middle" x="32" y="-444.4" font-family="Times,serif" font-size="12.00">12:drop</text>
<polyline fill="none" stroke="black" points="64,-429.5 64,-465.5 "/>
<text text-anchor="middle" x="633.5" y="-444.4" font-family="Times,serif" font-size="12.00">[&#39;text_tokens&#39;, &#39;tweet_id&#39;, &#39;tweet_timestamp&#39;, &#39;engaged_with_user_id&#39;, &#39;engaged_with_user_account_creation&#39;, &#39;engaging_user_id&#39;, &#39;engaging_user_account_creation&#39;, &#39;text_tokens__decoded&#39;]</text>
</g>
<!-- 11&#45;&gt;12 -->
<g id="edge12" class="edge">
<title>11&#45;&gt;12</title>
<path fill="none" stroke="black" d="M601.5,-502.21C601.5,-493.03 601.5,-484 601.5,-476.05"/>
<polygon fill="black" stroke="black" points="605,-475.96 601.5,-465.96 598,-475.96 605,-475.96"/>
</g>
<!-- 13 -->
<g id="node14" class="node">
<title>13</title>
<polygon fill="none" stroke="black" points="8,-356.5 8,-392.5 1195,-392.5 1195,-356.5 8,-356.5"/>
<text text-anchor="middle" x="70.5" y="-371.4" font-family="Times,serif" font-size="12.00">13:onehot_encode</text>
<polyline fill="none" stroke="black" points="133,-356.5 133,-392.5 "/>
<text text-anchor="middle" x="664" y="-371.4" font-family="Times,serif" font-size="12.00">[&quot;present_media: [nan, &#39;Photo&#39;, &#39;Photo\tPhoto\tPhoto&#39;, &#39;Video&#39;, &#39;Photo\tPhoto&#39;, &#39;Photo\tPhoto\tPhoto\tPhoto&#39;, &#39;GIF&#39;, &#39;Video\tVideo&#39;]&quot;, &quot;tweet_type: [&#39;TopLevel&#39;, &#39;Retweet&#39;, &#39;Quote&#39;]&quot;]</text>
</g>
<!-- 12&#45;&gt;13 -->
<g id="edge13" class="edge">
<title>12&#45;&gt;13</title>
<path fill="none" stroke="black" d="M601.5,-429.31C601.5,-421.29 601.5,-411.55 601.5,-402.57"/>
<polygon fill="black" stroke="black" points="605,-402.53 601.5,-392.53 598,-402.53 605,-402.53"/>
</g>
<!-- 14 -->
<g id="node15" class="node">
<title>14</title>
<polygon fill="none" stroke="black" points="261,-219.5 261,-319.5 942,-319.5 942,-219.5 261,-219.5"/>
<text text-anchor="middle" x="309.5" y="-266.4" font-family="Times,serif" font-size="12.00">14:categorify</text>
<polyline fill="none" stroke="black" points="358,-219.5 358,-319.5 "/>
<text text-anchor="start" x="366" y="-291.9" font-family="Times,serif" font-size="12.00">hashtags: (&#39;pipeline_default/hashtags_categorify_dict&#39;, &#39;hashtags__idx&#39;)</text>
<text text-anchor="start" x="366" y="-278.9" font-family="Times,serif" font-size="12.00">present_media: (&#39;pipeline_default/present_media_categorify_dict&#39;, &#39;present_media__idx&#39;)</text>
<text text-anchor="start" x="366" y="-265.9" font-family="Times,serif" font-size="12.00">present_links: (&#39;pipeline_default/present_links_categorify_dict&#39;, &#39;present_links__idx&#39;)</text>
<text text-anchor="start" x="366" y="-252.9" font-family="Times,serif" font-size="12.00">present_domains: (&#39;pipeline_default/present_domains_categorify_dict&#39;, &#39;present_domains__idx&#39;)</text>
<text text-anchor="start" x="366" y="-239.9" font-family="Times,serif" font-size="12.00">tweet_type: (&#39;pipeline_default/tweet_type_categorify_dict&#39;, &#39;tweet_type__idx&#39;)</text>
<text text-anchor="start" x="366" y="-226.9" font-family="Times,serif" font-size="12.00">language: (&#39;pipeline_default/language_categorify_dict&#39;, &#39;language__idx&#39;)</text>
</g>
<!-- 13&#45;&gt;14 -->
<g id="edge14" class="edge">
<title>13&#45;&gt;14</title>
<path fill="none" stroke="black" d="M601.5,-356.49C601.5,-348.94 601.5,-339.56 601.5,-329.8"/>
<polygon fill="black" stroke="black" points="605,-329.55 601.5,-319.55 598,-329.55 605,-329.55"/>
</g>
<!-- 15 -->
<g id="node16" class="node">
<title>15</title>
<polygon fill="none" stroke="black" points="298.5,-146.5 298.5,-182.5 904.5,-182.5 904.5,-146.5 298.5,-146.5"/>
<text text-anchor="middle" x="330.5" y="-161.4" font-family="Times,serif" font-size="12.00">15:drop</text>
<polyline fill="none" stroke="black" points="362.5,-146.5 362.5,-182.5 "/>
<text text-anchor="middle" x="633.5" y="-161.4" font-family="Times,serif" font-size="12.00">[&#39;hashtags&#39;, &#39;present_media&#39;, &#39;present_links&#39;, &#39;present_domains&#39;, &#39;tweet_type&#39;, &#39;language&#39;]</text>
</g>
<!-- 14&#45;&gt;15 -->
<g id="edge15" class="edge">
<title>14&#45;&gt;15</title>
<path fill="none" stroke="black" d="M601.5,-219.41C601.5,-210.19 601.5,-200.86 601.5,-192.62"/>
<polygon fill="black" stroke="black" points="605,-192.51 601.5,-182.51 598,-192.51 605,-192.51"/>
</g>
<!-- 16 -->
<g id="node17" class="node">
<title>16</title>
<polygon fill="none" stroke="black" points="508,-73.5 508,-109.5 695,-109.5 695,-73.5 508,-73.5"/>
<text text-anchor="middle" x="560" y="-88.4" font-family="Times,serif" font-size="12.00">16:DataFrame</text>
<polyline fill="none" stroke="black" points="612,-73.5 612,-109.5 "/>
<text text-anchor="middle" x="653.5" y="-88.4" font-family="Times,serif" font-size="12.00">main_table</text>
</g>
<!-- 15&#45;&gt;16 -->
<g id="edge16" class="edge">
<title>15&#45;&gt;16</title>
<path fill="none" stroke="black" d="M601.5,-146.31C601.5,-138.29 601.5,-128.55 601.5,-119.57"/>
<polygon fill="black" stroke="black" points="605,-119.53 601.5,-109.53 598,-119.53 605,-119.53"/>
</g>
<!-- 17 -->
<g id="node18" class="node">
<title>17</title>
<polygon fill="none" stroke="black" points="327,-0.5 327,-36.5 876,-36.5 876,-0.5 327,-0.5"/>
<text text-anchor="middle" x="371.5" y="-15.4" font-family="Times,serif" font-size="12.00">17:lightgbm</text>
<polyline fill="none" stroke="black" points="416,-0.5 416,-36.5 "/>
<text text-anchor="middle" x="646" y="-15.4" font-family="Times,serif" font-size="12.00">[&#39;label: reply&#39;, &#39;objective: binary&#39;, &#39;train_test_splitter: None&#39;, &#39;metrics: auc&#39;]</text>
</g>
<!-- 16&#45;&gt;17 -->
<g id="edge17" class="edge">
<title>16&#45;&gt;17</title>
<path fill="none" stroke="black" d="M601.5,-73.31C601.5,-65.29 601.5,-55.55 601.5,-46.57"/>
<polygon fill="black" stroke="black" points="605,-46.53 601.5,-36.53 598,-46.53 605,-46.53"/>
</g>
</g>
</svg>
