<?xml version="1.0" encoding="UTF-8" standalone="no"?>
<!DOCTYPE svg PUBLIC "-//W3C//DTD SVG 1.1//EN"
 "http://www.w3.org/Graphics/SVG/1.1/DTD/svg11.dtd">
<!-- Generated by graphviz version 2.43.0 (0)
 -->
<!-- Title: %3 Pages: 1 -->
<svg width="1540pt" height="556pt"
 viewBox="0.00 0.00 1540.00 556.00" xmlns="http://www.w3.org/2000/svg" xmlns:xlink="http://www.w3.org/1999/xlink">
<g id="graph0" class="graph" transform="scale(1 1) rotate(0) translate(4 552)">
<title>%3</title>
<polygon fill="white" stroke="transparent" points="-4,4 -4,-552 1536,-552 1536,4 -4,4"/>
<!-- 0 -->
<g id="node1" class="node">
<title>0</title>
<polygon fill="none" stroke="black" points="0,-511.5 0,-547.5 148,-547.5 148,-511.5 0,-511.5"/>
<text text-anchor="middle" x="48.5" y="-526.4" font-family="Times,serif" font-size="12.00">0:DataFrame</text>
<polyline fill="none" stroke="black" points="97,-511.5 97,-547.5 "/>
<text text-anchor="middle" x="122.5" y="-526.4" font-family="Times,serif" font-size="12.00">clicks</text>
</g>
<!-- 8 -->
<g id="node9" class="node">
<title>8</title>
<polygon fill="none" stroke="black" points="66,-438.5 66,-474.5 332,-474.5 332,-438.5 66,-438.5"/>
<text text-anchor="middle" x="99" y="-453.4" font-family="Times,serif" font-size="12.00">8:merge</text>
<polyline fill="none" stroke="black" points="132,-438.5 132,-474.5 "/>
<text text-anchor="middle" x="232" y="-453.4" font-family="Times,serif" font-size="12.00">[&quot;on: [&#39;display_id&#39;]&quot;, &#39;how: left&#39;]</text>
</g>
<!-- 0&#45;&gt;8 -->
<g id="edge1" class="edge">
<title>0&#45;&gt;8</title>
<path fill="none" stroke="black" d="M103.94,-511.49C120.67,-501.99 141.72,-490.04 159.75,-479.79"/>
<polygon fill="black" stroke="black" points="161.9,-482.6 168.87,-474.61 158.45,-476.51 161.9,-482.6"/>
</g>
<!-- 1 -->
<g id="node2" class="node">
<title>1</title>
<polygon fill="none" stroke="black" points="485,-365.5 485,-401.5 733,-401.5 733,-365.5 485,-365.5"/>
<text text-anchor="middle" x="533.5" y="-380.4" font-family="Times,serif" font-size="12.00">1:DataFrame</text>
<polyline fill="none" stroke="black" points="582,-365.5 582,-401.5 "/>
<text text-anchor="middle" x="657.5" y="-380.4" font-family="Times,serif" font-size="12.00">documents_categories</text>
</g>
<!-- 11 -->
<g id="node12" class="node">
<title>11</title>
<polygon fill="none" stroke="black" points="427,-292.5 427,-328.5 717,-328.5 717,-292.5 427,-292.5"/>
<text text-anchor="middle" x="464" y="-307.4" font-family="Times,serif" font-size="12.00">11:merge</text>
<polyline fill="none" stroke="black" points="501,-292.5 501,-328.5 "/>
<text text-anchor="middle" x="609" y="-307.4" font-family="Times,serif" font-size="12.00">[&quot;on: [&#39;document_id&#39;]&quot;, &#39;how: left&#39;]</text>
</g>
<!-- 1&#45;&gt;11 -->
<g id="edge7" class="edge">
<title>1&#45;&gt;11</title>
<path fill="none" stroke="black" d="M600.04,-365.31C595.68,-356.94 590.34,-346.7 585.5,-337.4"/>
<polygon fill="black" stroke="black" points="588.6,-335.78 580.87,-328.53 582.39,-339.01 588.6,-335.78"/>
</g>
<!-- 2 -->
<g id="node3" class="node">
<title>2</title>
<polygon fill="none" stroke="black" points="787,-365.5 787,-401.5 1015,-401.5 1015,-365.5 787,-365.5"/>
<text text-anchor="middle" x="835.5" y="-380.4" font-family="Times,serif" font-size="12.00">2:DataFrame</text>
<polyline fill="none" stroke="black" points="884,-365.5 884,-401.5 "/>
<text text-anchor="middle" x="949.5" y="-380.4" font-family="Times,serif" font-size="12.00">documents_entities</text>
</g>
<!-- 12 -->
<g id="node13" class="node">
<title>12</title>
<polygon fill="none" stroke="black" points="735,-292.5 735,-328.5 1067,-328.5 1067,-292.5 735,-292.5"/>
<text text-anchor="middle" x="775.5" y="-307.4" font-family="Times,serif" font-size="12.00">12:rename</text>
<polyline fill="none" stroke="black" points="816,-292.5 816,-328.5 "/>
<text text-anchor="middle" x="941.5" y="-307.4" font-family="Times,serif" font-size="12.00">[&#39;confidence_level: confidence_level_1&#39;]</text>
</g>
<!-- 2&#45;&gt;12 -->
<g id="edge8" class="edge">
<title>2&#45;&gt;12</title>
<path fill="none" stroke="black" d="M901,-365.31C901,-357.29 901,-347.55 901,-338.57"/>
<polygon fill="black" stroke="black" points="904.5,-338.53 901,-328.53 897.5,-338.53 904.5,-338.53"/>
</g>
<!-- 3 -->
<g id="node4" class="node">
<title>3</title>
<polygon fill="none" stroke="black" points="899.5,-219.5 899.5,-255.5 1114.5,-255.5 1114.5,-219.5 899.5,-219.5"/>
<text text-anchor="middle" x="948" y="-234.4" font-family="Times,serif" font-size="12.00">3:DataFrame</text>
<polyline fill="none" stroke="black" points="996.5,-219.5 996.5,-255.5 "/>
<text text-anchor="middle" x="1055.5" y="-234.4" font-family="Times,serif" font-size="12.00">documents_meta</text>
</g>
<!-- 14 -->
<g id="node15" class="node">
<title>14</title>
<polygon fill="none" stroke="black" points="815,-146.5 815,-182.5 1105,-182.5 1105,-146.5 815,-146.5"/>
<text text-anchor="middle" x="852" y="-161.4" font-family="Times,serif" font-size="12.00">14:merge</text>
<polyline fill="none" stroke="black" points="889,-146.5 889,-182.5 "/>
<text text-anchor="middle" x="997" y="-161.4" font-family="Times,serif" font-size="12.00">[&quot;on: [&#39;document_id&#39;]&quot;, &#39;how: left&#39;]</text>
</g>
<!-- 3&#45;&gt;14 -->
<g id="edge12" class="edge">
<title>3&#45;&gt;14</title>
<path fill="none" stroke="black" d="M995.62,-219.31C990.02,-210.85 983.16,-200.48 976.95,-191.11"/>
<polygon fill="black" stroke="black" points="979.71,-188.94 971.27,-182.53 973.87,-192.8 979.71,-188.94"/>
</g>
<!-- 4 -->
<g id="node5" class="node">
<title>4</title>
<polygon fill="none" stroke="black" points="1178.5,-219.5 1178.5,-255.5 1399.5,-255.5 1399.5,-219.5 1178.5,-219.5"/>
<text text-anchor="middle" x="1227" y="-234.4" font-family="Times,serif" font-size="12.00">4:DataFrame</text>
<polyline fill="none" stroke="black" points="1275.5,-219.5 1275.5,-255.5 "/>
<text text-anchor="middle" x="1337.5" y="-234.4" font-family="Times,serif" font-size="12.00">documents_topics</text>
</g>
<!-- 15 -->
<g id="node16" class="node">
<title>15</title>
<polygon fill="none" stroke="black" points="1123,-146.5 1123,-182.5 1455,-182.5 1455,-146.5 1123,-146.5"/>
<text text-anchor="middle" x="1163.5" y="-161.4" font-family="Times,serif" font-size="12.00">15:rename</text>
<polyline fill="none" stroke="black" points="1204,-146.5 1204,-182.5 "/>
<text text-anchor="middle" x="1329.5" y="-161.4" font-family="Times,serif" font-size="12.00">[&#39;confidence_level: confidence_level_2&#39;]</text>
</g>
<!-- 4&#45;&gt;15 -->
<g id="edge13" class="edge">
<title>4&#45;&gt;15</title>
<path fill="none" stroke="black" d="M1289,-219.31C1289,-211.29 1289,-201.55 1289,-192.57"/>
<polygon fill="black" stroke="black" points="1292.5,-192.53 1289,-182.53 1285.5,-192.53 1292.5,-192.53"/>
</g>
<!-- 5 -->
<g id="node6" class="node">
<title>5</title>
<polygon fill="none" stroke="black" points="166,-511.5 166,-547.5 318,-547.5 318,-511.5 166,-511.5"/>
<text text-anchor="middle" x="214.5" y="-526.4" font-family="Times,serif" font-size="12.00">5:DataFrame</text>
<polyline fill="none" stroke="black" points="263,-511.5 263,-547.5 "/>
<text text-anchor="middle" x="290.5" y="-526.4" font-family="Times,serif" font-size="12.00">events</text>
</g>
<!-- 5&#45;&gt;8 -->
<g id="edge2" class="edge">
<title>5&#45;&gt;8</title>
<path fill="none" stroke="black" d="M231.59,-511.31C226.47,-502.85 220.19,-492.48 214.51,-483.11"/>
<polygon fill="black" stroke="black" points="217.49,-481.27 209.31,-474.53 211.5,-484.9 217.49,-481.27"/>
</g>
<!-- 6 -->
<g id="node7" class="node">
<title>6</title>
<polygon fill="none" stroke="black" points="1287.5,-73.5 1287.5,-109.5 1470.5,-109.5 1470.5,-73.5 1287.5,-73.5"/>
<text text-anchor="middle" x="1336" y="-88.4" font-family="Times,serif" font-size="12.00">6:DataFrame</text>
<polyline fill="none" stroke="black" points="1384.5,-73.5 1384.5,-109.5 "/>
<text text-anchor="middle" x="1427.5" y="-88.4" font-family="Times,serif" font-size="12.00">page_views</text>
</g>
<!-- 17 -->
<g id="node18" class="node">
<title>17</title>
<polygon fill="none" stroke="black" points="970,-0.5 970,-36.5 1532,-36.5 1532,-0.5 970,-0.5"/>
<text text-anchor="middle" x="1007" y="-15.4" font-family="Times,serif" font-size="12.00">17:merge</text>
<polyline fill="none" stroke="black" points="1044,-0.5 1044,-36.5 "/>
<text text-anchor="middle" x="1288" y="-15.4" font-family="Times,serif" font-size="12.00">[&quot;on: [&#39;uuid&#39;, &#39;document_id&#39;, &#39;timestamp&#39;, &#39;platform&#39;, &#39;geo_location&#39;]&quot;, &#39;how: left&#39;]</text>
</g>
<!-- 6&#45;&gt;17 -->
<g id="edge17" class="edge">
<title>6&#45;&gt;17</title>
<path fill="none" stroke="black" d="M1348.34,-73.49C1331.05,-63.9 1309.26,-51.82 1290.68,-41.51"/>
<polygon fill="black" stroke="black" points="1292.3,-38.4 1281.85,-36.61 1288.9,-44.52 1292.3,-38.4"/>
</g>
<!-- 7 -->
<g id="node8" class="node">
<title>7</title>
<polygon fill="none" stroke="black" points="378.5,-511.5 378.5,-547.5 601.5,-547.5 601.5,-511.5 378.5,-511.5"/>
<text text-anchor="middle" x="427" y="-526.4" font-family="Times,serif" font-size="12.00">7:DataFrame</text>
<polyline fill="none" stroke="black" points="475.5,-511.5 475.5,-547.5 "/>
<text text-anchor="middle" x="538.5" y="-526.4" font-family="Times,serif" font-size="12.00">promoted_content</text>
</g>
<!-- 9 -->
<g id="node10" class="node">
<title>9</title>
<polygon fill="none" stroke="black" points="350,-438.5 350,-474.5 630,-474.5 630,-438.5 350,-438.5"/>
<text text-anchor="middle" x="387" y="-453.4" font-family="Times,serif" font-size="12.00">9:rename</text>
<polyline fill="none" stroke="black" points="424,-438.5 424,-474.5 "/>
<text text-anchor="middle" x="527" y="-453.4" font-family="Times,serif" font-size="12.00">[&#39;document_id: document_id_1&#39;]</text>
</g>
<!-- 7&#45;&gt;9 -->
<g id="edge3" class="edge">
<title>7&#45;&gt;9</title>
<path fill="none" stroke="black" d="M490,-511.31C490,-503.29 490,-493.55 490,-484.57"/>
<polygon fill="black" stroke="black" points="493.5,-484.53 490,-474.53 486.5,-484.53 493.5,-484.53"/>
</g>
<!-- 10 -->
<g id="node11" class="node">
<title>10</title>
<polygon fill="none" stroke="black" points="221,-365.5 221,-401.5 467,-401.5 467,-365.5 221,-365.5"/>
<text text-anchor="middle" x="258" y="-380.4" font-family="Times,serif" font-size="12.00">10:merge</text>
<polyline fill="none" stroke="black" points="295,-365.5 295,-401.5 "/>
<text text-anchor="middle" x="381" y="-380.4" font-family="Times,serif" font-size="12.00">[&quot;on: [&#39;ad_id&#39;]&quot;, &#39;how: left&#39;]</text>
</g>
<!-- 8&#45;&gt;10 -->
<g id="edge4" class="edge">
<title>8&#45;&gt;10</title>
<path fill="none" stroke="black" d="M233.73,-438.49C253.58,-428.77 278.68,-416.49 299.91,-406.09"/>
<polygon fill="black" stroke="black" points="301.61,-409.15 309.05,-401.61 298.53,-402.87 301.61,-409.15"/>
</g>
<!-- 9&#45;&gt;10 -->
<g id="edge5" class="edge">
<title>9&#45;&gt;10</title>
<path fill="none" stroke="black" d="M455.03,-438.49C435.04,-428.77 409.78,-416.49 388.4,-406.09"/>
<polygon fill="black" stroke="black" points="389.71,-402.84 379.19,-401.61 386.65,-409.13 389.71,-402.84"/>
</g>
<!-- 10&#45;&gt;11 -->
<g id="edge6" class="edge">
<title>10&#45;&gt;11</title>
<path fill="none" stroke="black" d="M398.61,-365.49C431.23,-355.34 472.84,-342.38 507.12,-331.7"/>
<polygon fill="black" stroke="black" points="508.54,-334.93 517.04,-328.61 506.46,-328.25 508.54,-334.93"/>
</g>
<!-- 13 -->
<g id="node14" class="node">
<title>13</title>
<polygon fill="none" stroke="black" points="591,-219.5 591,-255.5 881,-255.5 881,-219.5 591,-219.5"/>
<text text-anchor="middle" x="628" y="-234.4" font-family="Times,serif" font-size="12.00">13:merge</text>
<polyline fill="none" stroke="black" points="665,-219.5 665,-255.5 "/>
<text text-anchor="middle" x="773" y="-234.4" font-family="Times,serif" font-size="12.00">[&quot;on: [&#39;document_id&#39;]&quot;, &#39;how: left&#39;]</text>
</g>
<!-- 11&#45;&gt;13 -->
<g id="edge9" class="edge">
<title>11&#45;&gt;13</title>
<path fill="none" stroke="black" d="M611.28,-292.49C634.04,-282.64 662.88,-270.16 687.1,-259.67"/>
<polygon fill="black" stroke="black" points="688.68,-262.8 696.47,-255.61 685.9,-256.37 688.68,-262.8"/>
</g>
<!-- 12&#45;&gt;13 -->
<g id="edge10" class="edge">
<title>12&#45;&gt;13</title>
<path fill="none" stroke="black" d="M861.48,-292.49C838.59,-282.64 809.57,-270.16 785.2,-259.67"/>
<polygon fill="black" stroke="black" points="786.34,-256.35 775.77,-255.61 783.57,-262.78 786.34,-256.35"/>
</g>
<!-- 13&#45;&gt;14 -->
<g id="edge11" class="edge">
<title>13&#45;&gt;14</title>
<path fill="none" stroke="black" d="M789.65,-219.49C821.7,-209.34 862.58,-196.38 896.26,-185.7"/>
<polygon fill="black" stroke="black" points="897.53,-188.97 906.01,-182.61 895.42,-182.3 897.53,-188.97"/>
</g>
<!-- 16 -->
<g id="node17" class="node">
<title>16</title>
<polygon fill="none" stroke="black" points="979,-73.5 979,-109.5 1269,-109.5 1269,-73.5 979,-73.5"/>
<text text-anchor="middle" x="1016" y="-88.4" font-family="Times,serif" font-size="12.00">16:merge</text>
<polyline fill="none" stroke="black" points="1053,-73.5 1053,-109.5 "/>
<text text-anchor="middle" x="1161" y="-88.4" font-family="Times,serif" font-size="12.00">[&quot;on: [&#39;document_id&#39;]&quot;, &#39;how: left&#39;]</text>
</g>
<!-- 14&#45;&gt;16 -->
<g id="edge14" class="edge">
<title>14&#45;&gt;16</title>
<path fill="none" stroke="black" d="M999.28,-146.49C1022.04,-136.64 1050.88,-124.16 1075.1,-113.67"/>
<polygon fill="black" stroke="black" points="1076.68,-116.8 1084.47,-109.61 1073.9,-110.37 1076.68,-116.8"/>
</g>
<!-- 15&#45;&gt;16 -->
<g id="edge15" class="edge">
<title>15&#45;&gt;16</title>
<path fill="none" stroke="black" d="M1249.48,-146.49C1226.59,-136.64 1197.57,-124.16 1173.2,-113.67"/>
<polygon fill="black" stroke="black" points="1174.34,-110.35 1163.77,-109.61 1171.57,-116.78 1174.34,-110.35"/>
</g>
<!-- 16&#45;&gt;17 -->
<g id="edge16" class="edge">
<title>16&#45;&gt;17</title>
<path fill="none" stroke="black" d="M1154.42,-73.49C1171.57,-63.9 1193.19,-51.82 1211.63,-41.51"/>
<polygon fill="black" stroke="black" points="1213.37,-44.55 1220.39,-36.61 1209.95,-38.44 1213.37,-44.55"/>
</g>
</g>
</svg>
