<?xml version="1.0" encoding="UTF-8" standalone="no"?>
<!DOCTYPE svg PUBLIC "-//W3C//DTD SVG 1.1//EN"
 "http://www.w3.org/Graphics/SVG/1.1/DTD/svg11.dtd">
<!-- Generated by graphviz version 2.43.0 (0)
 -->
<!-- Title: %3 Pages: 1 -->
<svg width="649pt" height="955pt"
 viewBox="0.00 0.00 649.00 955.00" xmlns="http://www.w3.org/2000/svg" xmlns:xlink="http://www.w3.org/1999/xlink">
<g id="graph0" class="graph" transform="scale(1 1) rotate(0) translate(4 951)">
<title>%3</title>
<polygon fill="white" stroke="transparent" points="-4,4 -4,-951 645,-951 645,4 -4,4"/>
<!-- 0 -->
<g id="node1" class="node">
<title>0</title>
<polygon fill="none" stroke="black" points="230.5,-910.5 230.5,-946.5 410.5,-946.5 410.5,-910.5 230.5,-910.5"/>
<text text-anchor="middle" x="279" y="-925.4" font-family="Times,serif" font-size="12.00">0:DataFrame</text>
<polyline fill="none" stroke="black" points="327.5,-910.5 327.5,-946.5 "/>
<text text-anchor="middle" x="369" y="-925.4" font-family="Times,serif" font-size="12.00">main_table</text>
</g>
<!-- 1 -->
<g id="node2" class="node">
<title>1</title>
<polygon fill="none" stroke="black" points="107.5,-837.5 107.5,-873.5 533.5,-873.5 533.5,-837.5 107.5,-837.5"/>
<text text-anchor="middle" x="151.5" y="-852.4" font-family="Times,serif" font-size="12.00">1:type_infer</text>
<polyline fill="none" stroke="black" points="195.5,-837.5 195.5,-873.5 "/>
<text text-anchor="middle" x="364.5" y="-852.4" font-family="Times,serif" font-size="12.00">[(&#39;vibration&#39;, [&#39;is_numeric&#39;, &#39;is_float&#39;, &#39;is_categorical&#39;])]</text>
</g>
<!-- 0&#45;&gt;1 -->
<g id="edge1" class="edge">
<title>0&#45;&gt;1</title>
<path fill="none" stroke="black" d="M320.5,-910.31C320.5,-902.29 320.5,-892.55 320.5,-883.57"/>
<polygon fill="black" stroke="black" points="324,-883.53 320.5,-873.53 317,-883.53 324,-883.53"/>
</g>
<!-- 2 -->
<g id="node3" class="node">
<title>2</title>
<polygon fill="none" stroke="black" points="3,-764.5 3,-800.5 638,-800.5 638,-764.5 3,-764.5"/>
<text text-anchor="middle" x="36.5" y="-779.4" font-family="Times,serif" font-size="12.00">2:astype</text>
<polyline fill="none" stroke="black" points="70,-764.5 70,-800.5 "/>
<text text-anchor="middle" x="354" y="-779.4" font-family="Times,serif" font-size="12.00">[&quot;vibration: [(&#39;vibration&#39;, &lt;class &#39;pyrecdp.primitives.generators.type.FloatTransformer&#39;&gt;)]&quot;]</text>
</g>
<!-- 1&#45;&gt;2 -->
<g id="edge2" class="edge">
<title>1&#45;&gt;2</title>
<path fill="none" stroke="black" d="M320.5,-837.31C320.5,-829.29 320.5,-819.55 320.5,-810.57"/>
<polygon fill="black" stroke="black" points="324,-810.53 320.5,-800.53 317,-810.53 324,-810.53"/>
</g>
<!-- 3 -->
<g id="node4" class="node">
<title>3</title>
<polygon fill="none" stroke="black" points="238.5,-691.5 238.5,-727.5 402.5,-727.5 402.5,-691.5 238.5,-691.5"/>
<text text-anchor="middle" x="268" y="-706.4" font-family="Times,serif" font-size="12.00">3:fillna</text>
<polyline fill="none" stroke="black" points="297.5,-691.5 297.5,-727.5 "/>
<text text-anchor="middle" x="350" y="-706.4" font-family="Times,serif" font-size="12.00">[&#39;vibration: &#45;1&#39;]</text>
</g>
<!-- 2&#45;&gt;3 -->
<g id="edge3" class="edge">
<title>2&#45;&gt;3</title>
<path fill="none" stroke="black" d="M320.5,-764.31C320.5,-756.29 320.5,-746.55 320.5,-737.57"/>
<polygon fill="black" stroke="black" points="324,-737.53 320.5,-727.53 317,-737.53 324,-737.53"/>
</g>
<!-- 4 -->
<g id="node5" class="node">
<title>4</title>
<polygon fill="none" stroke="black" points="230.5,-618.5 230.5,-654.5 410.5,-654.5 410.5,-618.5 230.5,-618.5"/>
<text text-anchor="middle" x="279" y="-633.4" font-family="Times,serif" font-size="12.00">4:DataFrame</text>
<polyline fill="none" stroke="black" points="327.5,-618.5 327.5,-654.5 "/>
<text text-anchor="middle" x="369" y="-633.4" font-family="Times,serif" font-size="12.00">main_table</text>
</g>
<!-- 3&#45;&gt;4 -->
<g id="edge4" class="edge">
<title>3&#45;&gt;4</title>
<path fill="none" stroke="black" d="M320.5,-691.31C320.5,-683.29 320.5,-673.55 320.5,-664.57"/>
<polygon fill="black" stroke="black" points="324,-664.53 320.5,-654.53 317,-664.53 324,-664.53"/>
</g>
<!-- 5 -->
<g id="node6" class="node">
<title>5</title>
<polygon fill="none" stroke="black" points="113.5,-455.5 113.5,-581.5 527.5,-581.5 527.5,-455.5 113.5,-455.5"/>
<text text-anchor="middle" x="157.5" y="-515.4" font-family="Times,serif" font-size="12.00">5:type_infer</text>
<polyline fill="none" stroke="black" points="201.5,-455.5 201.5,-581.5 "/>
<text text-anchor="start" x="209.5" y="-553.9" font-family="Times,serif" font-size="12.00">(&#39;ID&#39;, [&#39;is_integer&#39;, &#39;is_numeric&#39;])</text>
<text text-anchor="start" x="209.5" y="-540.9" font-family="Times,serif" font-size="12.00">(&#39;revolutions&#39;, [&#39;is_numeric&#39;, &#39;is_float&#39;])</text>
<text text-anchor="start" x="209.5" y="-527.9" font-family="Times,serif" font-size="12.00">(&#39;humidity&#39;, [&#39;is_numeric&#39;, &#39;is_float&#39;, &#39;is_categorical&#39;])</text>
<text text-anchor="start" x="209.5" y="-514.9" font-family="Times,serif" font-size="12.00">(&#39;x1&#39;, [&#39;is_numeric&#39;, &#39;is_float&#39;])</text>
<text text-anchor="start" x="209.5" y="-501.9" font-family="Times,serif" font-size="12.00">(&#39;x2&#39;, [&#39;is_numeric&#39;, &#39;is_float&#39;])</text>
<text text-anchor="start" x="209.5" y="-488.9" font-family="Times,serif" font-size="12.00">(&#39;x3&#39;, [&#39;is_numeric&#39;, &#39;is_float&#39;])</text>
<text text-anchor="start" x="209.5" y="-475.9" font-family="Times,serif" font-size="12.00">(&#39;x4&#39;, [&#39;is_numeric&#39;, &#39;is_float&#39;])</text>
<text text-anchor="start" x="209.5" y="-462.9" font-family="Times,serif" font-size="12.00">(&#39;x5&#39;, [&#39;is_numeric&#39;, &#39;is_float&#39;, &#39;is_categorical&#39;])</text>
</g>
<!-- 4&#45;&gt;5 -->
<g id="edge5" class="edge">
<title>4&#45;&gt;5</title>
<path fill="none" stroke="black" d="M320.5,-618.38C320.5,-610.92 320.5,-601.61 320.5,-591.71"/>
<polygon fill="black" stroke="black" points="324,-591.67 320.5,-581.67 317,-591.67 324,-591.67"/>
</g>
<!-- 6 -->
<g id="node7" class="node">
<title>6</title>
<polygon fill="none" stroke="black" points="0,-292.5 0,-418.5 641,-418.5 641,-292.5 0,-292.5"/>
<text text-anchor="middle" x="33.5" y="-352.4" font-family="Times,serif" font-size="12.00">6:astype</text>
<polyline fill="none" stroke="black" points="67,-292.5 67,-418.5 "/>
<text text-anchor="start" x="75" y="-390.9" font-family="Times,serif" font-size="12.00">ID: [(&#39;ID&#39;, &lt;class &#39;pyrecdp.primitives.generators.type.IntTransformer&#39;&gt;)]</text>
<text text-anchor="start" x="75" y="-377.9" font-family="Times,serif" font-size="12.00">revolutions: [(&#39;revolutions&#39;, &lt;class &#39;pyrecdp.primitives.generators.type.FloatTransformer&#39;&gt;)]</text>
<text text-anchor="start" x="75" y="-364.9" font-family="Times,serif" font-size="12.00">humidity: [(&#39;humidity&#39;, &lt;class &#39;pyrecdp.primitives.generators.type.FloatTransformer&#39;&gt;)]</text>
<text text-anchor="start" x="75" y="-351.9" font-family="Times,serif" font-size="12.00">x1: [(&#39;x1&#39;, &lt;class &#39;pyrecdp.primitives.generators.type.FloatTransformer&#39;&gt;)]</text>
<text text-anchor="start" x="75" y="-338.9" font-family="Times,serif" font-size="12.00">x2: [(&#39;x2&#39;, &lt;class &#39;pyrecdp.primitives.generators.type.FloatTransformer&#39;&gt;)]</text>
<text text-anchor="start" x="75" y="-325.9" font-family="Times,serif" font-size="12.00">x3: [(&#39;x3&#39;, &lt;class &#39;pyrecdp.primitives.generators.type.FloatTransformer&#39;&gt;)]</text>
<text text-anchor="start" x="75" y="-312.9" font-family="Times,serif" font-size="12.00">x4: [(&#39;x4&#39;, &lt;class &#39;pyrecdp.primitives.generators.type.FloatTransformer&#39;&gt;)]</text>
<text text-anchor="start" x="75" y="-299.9" font-family="Times,serif" font-size="12.00">x5: [(&#39;x5&#39;, &lt;class &#39;pyrecdp.primitives.generators.type.FloatTransformer&#39;&gt;)]</text>
</g>
<!-- 5&#45;&gt;6 -->
<g id="edge6" class="edge">
<title>5&#45;&gt;6</title>
<path fill="none" stroke="black" d="M320.5,-455.25C320.5,-446.6 320.5,-437.66 320.5,-428.84"/>
<polygon fill="black" stroke="black" points="324,-428.58 320.5,-418.58 317,-428.58 324,-428.58"/>
</g>
<!-- 7 -->
<g id="node8" class="node">
<title>7</title>
<polygon fill="none" stroke="black" points="50,-219.5 50,-255.5 591,-255.5 591,-219.5 50,-219.5"/>
<text text-anchor="middle" x="79.5" y="-234.4" font-family="Times,serif" font-size="12.00">7:fillna</text>
<polyline fill="none" stroke="black" points="109,-219.5 109,-255.5 "/>
<text text-anchor="middle" x="350" y="-234.4" font-family="Times,serif" font-size="12.00">[&#39;ID: &#45;1&#39;, &#39;revolutions: &#45;1&#39;, &#39;humidity: &#45;1&#39;, &#39;x1: &#45;1&#39;, &#39;x2: &#45;1&#39;, &#39;x3: &#45;1&#39;, &#39;x4: &#45;1&#39;, &#39;x5: &#45;1&#39;]</text>
</g>
<!-- 6&#45;&gt;7 -->
<g id="edge7" class="edge">
<title>6&#45;&gt;7</title>
<path fill="none" stroke="black" d="M320.5,-292.42C320.5,-283.09 320.5,-273.9 320.5,-265.82"/>
<polygon fill="black" stroke="black" points="324,-265.59 320.5,-255.59 317,-265.59 324,-265.59"/>
</g>
<!-- 10 -->
<g id="node11" class="node">
<title>10</title>
<polygon fill="none" stroke="black" points="39,-146.5 39,-182.5 602,-182.5 602,-146.5 39,-146.5"/>
<text text-anchor="middle" x="108" y="-161.4" font-family="Times,serif" font-size="12.00">10:custom_operator</text>
<polyline fill="none" stroke="black" points="177,-146.5 177,-182.5 "/>
<text text-anchor="middle" x="389.5" y="-161.4" font-family="Times,serif" font-size="12.00">[&#39;func_name: &lt;function bigdl_chronos_forcast at 0x7f5ce6ebef70&gt;&#39;]</text>
</g>
<!-- 7&#45;&gt;10 -->
<g id="edge10" class="edge">
<title>7&#45;&gt;10</title>
<path fill="none" stroke="black" d="M320.5,-219.31C320.5,-211.29 320.5,-201.55 320.5,-192.57"/>
<polygon fill="black" stroke="black" points="324,-192.53 320.5,-182.53 317,-192.53 324,-192.53"/>
</g>
<!-- 8 -->
<g id="node9" class="node">
<title>8</title>
<polygon fill="none" stroke="black" points="230.5,-73.5 230.5,-109.5 410.5,-109.5 410.5,-73.5 230.5,-73.5"/>
<text text-anchor="middle" x="279" y="-88.4" font-family="Times,serif" font-size="12.00">8:DataFrame</text>
<polyline fill="none" stroke="black" points="327.5,-73.5 327.5,-109.5 "/>
<text text-anchor="middle" x="369" y="-88.4" font-family="Times,serif" font-size="12.00">main_table</text>
</g>
<!-- 9 -->
<g id="node10" class="node">
<title>9</title>
<polygon fill="none" stroke="black" points="21.5,-0.5 21.5,-36.5 619.5,-36.5 619.5,-0.5 21.5,-0.5"/>
<text text-anchor="middle" x="62" y="-15.4" font-family="Times,serif" font-size="12.00">9:lightgbm</text>
<polyline fill="none" stroke="black" points="102.5,-0.5 102.5,-36.5 "/>
<text text-anchor="middle" x="361" y="-15.4" font-family="Times,serif" font-size="12.00">[&#39;label: vibration&#39;, &#39;objective: regression&#39;, &#39;train_test_splitter: None&#39;, &#39;metrics: rmse&#39;]</text>
</g>
<!-- 8&#45;&gt;9 -->
<g id="edge9" class="edge">
<title>8&#45;&gt;9</title>
<path fill="none" stroke="black" d="M320.5,-73.31C320.5,-65.29 320.5,-55.55 320.5,-46.57"/>
<polygon fill="black" stroke="black" points="324,-46.53 320.5,-36.53 317,-46.53 324,-46.53"/>
</g>
<!-- 10&#45;&gt;8 -->
<g id="edge8" class="edge">
<title>10&#45;&gt;8</title>
<path fill="none" stroke="black" d="M320.5,-146.31C320.5,-138.29 320.5,-128.55 320.5,-119.57"/>
<polygon fill="black" stroke="black" points="324,-119.53 320.5,-109.53 317,-119.53 324,-119.53"/>
</g>
</g>
</svg>
