<?xml version="1.0" encoding="UTF-8" standalone="no"?>
<!DOCTYPE svg PUBLIC "-//W3C//DTD SVG 1.1//EN"
 "http://www.w3.org/Graphics/SVG/1.1/DTD/svg11.dtd">
<!-- Generated by graphviz version 2.43.0 (0)
 -->
<!-- Title: %3 Pages: 1 -->
<svg width="890pt" height="2432pt"
 viewBox="0.00 0.00 890.00 2432.00" xmlns="http://www.w3.org/2000/svg" xmlns:xlink="http://www.w3.org/1999/xlink">
<g id="graph0" class="graph" transform="scale(1 1) rotate(0) translate(4 2428)">
<title>%3</title>
<polygon fill="white" stroke="transparent" points="-4,4 -4,-2428 886,-2428 886,4 -4,4"/>
<!-- 0 -->
<g id="node1" class="node">
<title>0</title>
<polygon fill="none" stroke="black" points="351,-2387.5 351,-2423.5 531,-2423.5 531,-2387.5 351,-2387.5"/>
<text text-anchor="middle" x="399.5" y="-2402.4" font-family="Times,serif" font-size="12.00">0:DataFrame</text>
<polyline fill="none" stroke="black" points="448,-2387.5 448,-2423.5 "/>
<text text-anchor="middle" x="489.5" y="-2402.4" font-family="Times,serif" font-size="12.00">main_table</text>
</g>
<!-- 1 -->
<g id="node2" class="node">
<title>1</title>
<polygon fill="none" stroke="black" points="227,-2314.5 227,-2350.5 655,-2350.5 655,-2314.5 227,-2314.5"/>
<text text-anchor="middle" x="271" y="-2329.4" font-family="Times,serif" font-size="12.00">1:type_infer</text>
<polyline fill="none" stroke="black" points="315,-2314.5 315,-2350.5 "/>
<text text-anchor="middle" x="485" y="-2329.4" font-family="Times,serif" font-size="12.00">[(&#39;Is Fraud?&#39;, [&#39;is_string&#39;, &#39;is_categorical&#39;, &#39;is_onehot&#39;])]</text>
</g>
<!-- 0&#45;&gt;1 -->
<g id="edge1" class="edge">
<title>0&#45;&gt;1</title>
<path fill="none" stroke="black" d="M441,-2387.31C441,-2379.29 441,-2369.55 441,-2360.57"/>
<polygon fill="black" stroke="black" points="444.5,-2360.53 441,-2350.53 437.5,-2360.53 444.5,-2360.53"/>
</g>
<!-- 2 -->
<g id="node3" class="node">
<title>2</title>
<polygon fill="none" stroke="black" points="329,-2241.5 329,-2277.5 553,-2277.5 553,-2241.5 329,-2241.5"/>
<text text-anchor="middle" x="366" y="-2256.4" font-family="Times,serif" font-size="12.00">2:rename</text>
<polyline fill="none" stroke="black" points="403,-2241.5 403,-2277.5 "/>
<text text-anchor="middle" x="478" y="-2256.4" font-family="Times,serif" font-size="12.00">[&#39;Is Fraud?: Is_Fraud&#39;]</text>
</g>
<!-- 1&#45;&gt;2 -->
<g id="edge2" class="edge">
<title>1&#45;&gt;2</title>
<path fill="none" stroke="black" d="M441,-2314.31C441,-2306.29 441,-2296.55 441,-2287.57"/>
<polygon fill="black" stroke="black" points="444.5,-2287.53 441,-2277.53 437.5,-2287.53 444.5,-2287.53"/>
</g>
<!-- 3 -->
<g id="node4" class="node">
<title>3</title>
<polygon fill="none" stroke="black" points="365.5,-2168.5 365.5,-2204.5 516.5,-2204.5 516.5,-2168.5 365.5,-2168.5"/>
<text text-anchor="middle" x="395" y="-2183.4" font-family="Times,serif" font-size="12.00">3:fillna</text>
<polyline fill="none" stroke="black" points="424.5,-2168.5 424.5,-2204.5 "/>
<text text-anchor="middle" x="470.5" y="-2183.4" font-family="Times,serif" font-size="12.00">[&#39;Is_Fraud: &#39;]</text>
</g>
<!-- 2&#45;&gt;3 -->
<g id="edge3" class="edge">
<title>2&#45;&gt;3</title>
<path fill="none" stroke="black" d="M441,-2241.31C441,-2233.29 441,-2223.55 441,-2214.57"/>
<polygon fill="black" stroke="black" points="444.5,-2214.53 441,-2204.53 437.5,-2214.53 444.5,-2214.53"/>
</g>
<!-- 4 -->
<g id="node5" class="node">
<title>4</title>
<polygon fill="none" stroke="black" points="183,-2095.5 183,-2131.5 699,-2131.5 699,-2095.5 183,-2095.5"/>
<text text-anchor="middle" x="227.5" y="-2110.4" font-family="Times,serif" font-size="12.00">4:categorify</text>
<polyline fill="none" stroke="black" points="272,-2095.5 272,-2131.5 "/>
<text text-anchor="middle" x="485.5" y="-2110.4" font-family="Times,serif" font-size="12.00">[&quot;Is_Fraud: (&#39;pipeline_default/Is_Fraud_categorify_dict&#39;, &#39;Is_Fraud&#39;)&quot;]</text>
</g>
<!-- 3&#45;&gt;4 -->
<g id="edge4" class="edge">
<title>3&#45;&gt;4</title>
<path fill="none" stroke="black" d="M441,-2168.31C441,-2160.29 441,-2150.55 441,-2141.57"/>
<polygon fill="black" stroke="black" points="444.5,-2141.53 441,-2131.53 437.5,-2141.53 444.5,-2141.53"/>
</g>
<!-- 5 -->
<g id="node6" class="node">
<title>5</title>
<polygon fill="none" stroke="black" points="351,-2022.5 351,-2058.5 531,-2058.5 531,-2022.5 351,-2022.5"/>
<text text-anchor="middle" x="399.5" y="-2037.4" font-family="Times,serif" font-size="12.00">5:DataFrame</text>
<polyline fill="none" stroke="black" points="448,-2022.5 448,-2058.5 "/>
<text text-anchor="middle" x="489.5" y="-2037.4" font-family="Times,serif" font-size="12.00">main_table</text>
</g>
<!-- 4&#45;&gt;5 -->
<g id="edge5" class="edge">
<title>4&#45;&gt;5</title>
<path fill="none" stroke="black" d="M441,-2095.31C441,-2087.29 441,-2077.55 441,-2068.57"/>
<polygon fill="black" stroke="black" points="444.5,-2068.53 441,-2058.53 437.5,-2068.53 444.5,-2068.53"/>
</g>
<!-- 6 -->
<g id="node7" class="node">
<title>6</title>
<polygon fill="none" stroke="black" points="203.5,-1781.5 203.5,-1985.5 678.5,-1985.5 678.5,-1781.5 203.5,-1781.5"/>
<text text-anchor="middle" x="247.5" y="-1880.4" font-family="Times,serif" font-size="12.00">6:type_infer</text>
<polyline fill="none" stroke="black" points="291.5,-1781.5 291.5,-1985.5 "/>
<text text-anchor="start" x="299.5" y="-1957.9" font-family="Times,serif" font-size="12.00">(&#39;User&#39;, [&#39;is_integer&#39;, &#39;is_numeric&#39;, &#39;is_categorical&#39;])</text>
<text text-anchor="start" x="299.5" y="-1944.9" font-family="Times,serif" font-size="12.00">(&#39;Card&#39;, [&#39;is_integer&#39;, &#39;is_numeric&#39;, &#39;is_categorical&#39;])</text>
<text text-anchor="start" x="299.5" y="-1931.9" font-family="Times,serif" font-size="12.00">(&#39;Year&#39;, [&#39;is_integer&#39;, &#39;is_numeric&#39;, &#39;is_categorical&#39;])</text>
<text text-anchor="start" x="299.5" y="-1918.9" font-family="Times,serif" font-size="12.00">(&#39;Month&#39;, [&#39;is_integer&#39;, &#39;is_numeric&#39;, &#39;is_categorical&#39;])</text>
<text text-anchor="start" x="299.5" y="-1905.9" font-family="Times,serif" font-size="12.00">(&#39;Day&#39;, [&#39;is_integer&#39;, &#39;is_numeric&#39;, &#39;is_categorical&#39;])</text>
<text text-anchor="start" x="299.5" y="-1892.9" font-family="Times,serif" font-size="12.00">(&#39;Time&#39;, [&#39;is_string&#39;, &#39;is_datetime&#39;, &#39;is_categorical&#39;])</text>
<text text-anchor="start" x="299.5" y="-1879.9" font-family="Times,serif" font-size="12.00">(&#39;Amount&#39;, [&#39;is_string&#39;, &#39;is_categorical&#39;, &#39;is_re_numeric&#39;])</text>
<text text-anchor="start" x="299.5" y="-1866.9" font-family="Times,serif" font-size="12.00">(&#39;Use Chip&#39;, [&#39;is_string&#39;, &#39;is_categorical&#39;, &#39;is_onehot&#39;])</text>
<text text-anchor="start" x="299.5" y="-1853.9" font-family="Times,serif" font-size="12.00">(&#39;Merchant Name&#39;, [&#39;is_integer&#39;, &#39;is_numeric&#39;, &#39;is_categorical&#39;])</text>
<text text-anchor="start" x="299.5" y="-1840.9" font-family="Times,serif" font-size="12.00">(&#39;Merchant City&#39;, [&#39;is_string&#39;, &#39;is_categorical&#39;])</text>
<text text-anchor="start" x="299.5" y="-1827.9" font-family="Times,serif" font-size="12.00">(&#39;Merchant State&#39;, [&#39;is_string&#39;, &#39;is_categorical&#39;])</text>
<text text-anchor="start" x="299.5" y="-1814.9" font-family="Times,serif" font-size="12.00">(&#39;Zip&#39;, [&#39;is_integer&#39;, &#39;is_numeric&#39;, &#39;is_categorical&#39;])</text>
<text text-anchor="start" x="299.5" y="-1801.9" font-family="Times,serif" font-size="12.00">(&#39;MCC&#39;, [&#39;is_integer&#39;, &#39;is_numeric&#39;, &#39;is_categorical&#39;])</text>
<text text-anchor="start" x="299.5" y="-1788.9" font-family="Times,serif" font-size="12.00">(&#39;Errors?&#39;, [&#39;is_string&#39;, &#39;is_categorical&#39;, &#39;is_onehot&#39;])</text>
</g>
<!-- 5&#45;&gt;6 -->
<g id="edge6" class="edge">
<title>5&#45;&gt;6</title>
<path fill="none" stroke="black" d="M441,-2022.32C441,-2015.11 441,-2006.07 441,-1996.09"/>
<polygon fill="black" stroke="black" points="444.5,-1995.84 441,-1985.84 437.5,-1995.84 444.5,-1995.84"/>
</g>
<!-- 7 -->
<g id="node8" class="node">
<title>7</title>
<polygon fill="none" stroke="black" points="0,-1708.5 0,-1744.5 882,-1744.5 882,-1708.5 0,-1708.5"/>
<text text-anchor="middle" x="67" y="-1723.4" font-family="Times,serif" font-size="12.00">7:string_to_number</text>
<polyline fill="none" stroke="black" points="134,-1708.5 134,-1744.5 "/>
<text text-anchor="middle" x="508" y="-1723.4" font-family="Times,serif" font-size="12.00">[&quot;Amount: [(&#39;Amount__string_to_number&#39;, &lt;class &#39;pyrecdp.primitives.generators.feature_transform.StringToNumber&#39;&gt;)]&quot;]</text>
</g>
<!-- 6&#45;&gt;7 -->
<g id="edge7" class="edge">
<title>6&#45;&gt;7</title>
<path fill="none" stroke="black" d="M441,-1781.28C441,-1771.75 441,-1762.75 441,-1754.94"/>
<polygon fill="black" stroke="black" points="444.5,-1754.76 441,-1744.76 437.5,-1754.76 444.5,-1754.76"/>
</g>
<!-- 8 -->
<g id="node9" class="node">
<title>8</title>
<polygon fill="none" stroke="black" points="30.5,-1532.5 30.5,-1671.5 851.5,-1671.5 851.5,-1532.5 30.5,-1532.5"/>
<text text-anchor="middle" x="64" y="-1598.9" font-family="Times,serif" font-size="12.00">8:astype</text>
<polyline fill="none" stroke="black" points="97.5,-1532.5 97.5,-1671.5 "/>
<text text-anchor="start" x="105.5" y="-1643.9" font-family="Times,serif" font-size="12.00">User: [(&#39;User&#39;, &lt;class &#39;pyrecdp.primitives.generators.type.IntTransformer&#39;&gt;)]</text>
<text text-anchor="start" x="105.5" y="-1630.9" font-family="Times,serif" font-size="12.00">Card: [(&#39;Card&#39;, &lt;class &#39;pyrecdp.primitives.generators.type.IntTransformer&#39;&gt;)]</text>
<text text-anchor="start" x="105.5" y="-1617.9" font-family="Times,serif" font-size="12.00">Year: [(&#39;Year&#39;, &lt;class &#39;pyrecdp.primitives.generators.type.IntTransformer&#39;&gt;)]</text>
<text text-anchor="start" x="105.5" y="-1604.9" font-family="Times,serif" font-size="12.00">Month: [(&#39;Month&#39;, &lt;class &#39;pyrecdp.primitives.generators.type.IntTransformer&#39;&gt;)]</text>
<text text-anchor="start" x="105.5" y="-1591.9" font-family="Times,serif" font-size="12.00">Day: [(&#39;Day&#39;, &lt;class &#39;pyrecdp.primitives.generators.type.IntTransformer&#39;&gt;)]</text>
<text text-anchor="start" x="105.5" y="-1578.9" font-family="Times,serif" font-size="12.00">Merchant Name: [(&#39;Merchant Name&#39;, &lt;class &#39;pyrecdp.primitives.generators.type.IntTransformer&#39;&gt;)]</text>
<text text-anchor="start" x="105.5" y="-1565.9" font-family="Times,serif" font-size="12.00">Zip: [(&#39;Zip&#39;, &lt;class &#39;pyrecdp.primitives.generators.type.IntTransformer&#39;&gt;)]</text>
<text text-anchor="start" x="105.5" y="-1552.9" font-family="Times,serif" font-size="12.00">MCC: [(&#39;MCC&#39;, &lt;class &#39;pyrecdp.primitives.generators.type.IntTransformer&#39;&gt;)]</text>
<text text-anchor="start" x="105.5" y="-1539.9" font-family="Times,serif" font-size="12.00">Amount__string_to_number: [(&#39;Amount__string_to_number&#39;, &lt;class &#39;pyrecdp.primitives.generators.type.IntTransformer&#39;&gt;)]</text>
</g>
<!-- 7&#45;&gt;8 -->
<g id="edge8" class="edge">
<title>7&#45;&gt;8</title>
<path fill="none" stroke="black" d="M441,-1708.47C441,-1701.02 441,-1691.71 441,-1681.72"/>
<polygon fill="black" stroke="black" points="444.5,-1681.55 441,-1671.55 437.5,-1681.55 444.5,-1681.55"/>
</g>
<!-- 9 -->
<g id="node10" class="node">
<title>9</title>
<polygon fill="none" stroke="black" points="311.5,-1278.5 311.5,-1495.5 570.5,-1495.5 570.5,-1278.5 311.5,-1278.5"/>
<text text-anchor="middle" x="341" y="-1383.9" font-family="Times,serif" font-size="12.00">9:fillna</text>
<polyline fill="none" stroke="black" points="370.5,-1278.5 370.5,-1495.5 "/>
<text text-anchor="start" x="378.5" y="-1467.9" font-family="Times,serif" font-size="12.00">User: &#45;1</text>
<text text-anchor="start" x="378.5" y="-1454.9" font-family="Times,serif" font-size="12.00">Card: &#45;1</text>
<text text-anchor="start" x="378.5" y="-1441.9" font-family="Times,serif" font-size="12.00">Year: &#45;1</text>
<text text-anchor="start" x="378.5" y="-1428.9" font-family="Times,serif" font-size="12.00">Month: &#45;1</text>
<text text-anchor="start" x="378.5" y="-1415.9" font-family="Times,serif" font-size="12.00">Day: &#45;1</text>
<text text-anchor="start" x="378.5" y="-1402.9" font-family="Times,serif" font-size="12.00">Time: 0</text>
<text text-anchor="start" x="378.5" y="-1389.9" font-family="Times,serif" font-size="12.00">Amount: </text>
<text text-anchor="start" x="378.5" y="-1376.9" font-family="Times,serif" font-size="12.00">Use Chip: </text>
<text text-anchor="start" x="378.5" y="-1363.9" font-family="Times,serif" font-size="12.00">Merchant Name: &#45;1</text>
<text text-anchor="start" x="378.5" y="-1350.9" font-family="Times,serif" font-size="12.00">Merchant City: </text>
<text text-anchor="start" x="378.5" y="-1337.9" font-family="Times,serif" font-size="12.00">Merchant State: </text>
<text text-anchor="start" x="378.5" y="-1324.9" font-family="Times,serif" font-size="12.00">Zip: &#45;1</text>
<text text-anchor="start" x="378.5" y="-1311.9" font-family="Times,serif" font-size="12.00">MCC: &#45;1</text>
<text text-anchor="start" x="378.5" y="-1298.9" font-family="Times,serif" font-size="12.00">Errors?: </text>
<text text-anchor="start" x="378.5" y="-1285.9" font-family="Times,serif" font-size="12.00">Amount__string_to_number: &#45;1</text>
</g>
<!-- 8&#45;&gt;9 -->
<g id="edge9" class="edge">
<title>8&#45;&gt;9</title>
<path fill="none" stroke="black" d="M441,-1532.43C441,-1523.86 441,-1514.91 441,-1505.86"/>
<polygon fill="black" stroke="black" points="444.5,-1505.59 441,-1495.59 437.5,-1505.59 444.5,-1505.59"/>
</g>
<!-- 10 -->
<g id="node11" class="node">
<title>10</title>
<polygon fill="none" stroke="black" points="223.5,-1115.5 223.5,-1241.5 658.5,-1241.5 658.5,-1115.5 223.5,-1115.5"/>
<text text-anchor="middle" x="264" y="-1175.4" font-family="Times,serif" font-size="12.00">10:rename</text>
<polyline fill="none" stroke="black" points="304.5,-1115.5 304.5,-1241.5 "/>
<text text-anchor="start" x="312.5" y="-1213.9" font-family="Times,serif" font-size="12.00">Use Chip: Use_Chip</text>
<text text-anchor="start" x="312.5" y="-1200.9" font-family="Times,serif" font-size="12.00">Merchant Name: Merchant_Name</text>
<text text-anchor="start" x="312.5" y="-1187.9" font-family="Times,serif" font-size="12.00">Merchant City: Merchant_City</text>
<text text-anchor="start" x="312.5" y="-1174.9" font-family="Times,serif" font-size="12.00">Merchant State: Merchant_State</text>
<text text-anchor="start" x="312.5" y="-1161.9" font-family="Times,serif" font-size="12.00">Zip: Zip</text>
<text text-anchor="start" x="312.5" y="-1148.9" font-family="Times,serif" font-size="12.00">MCC: MCC</text>
<text text-anchor="start" x="312.5" y="-1135.9" font-family="Times,serif" font-size="12.00">Errors?: Errors</text>
<text text-anchor="start" x="312.5" y="-1122.9" font-family="Times,serif" font-size="12.00">Amount__string_to_number: Amount__string_to_number</text>
</g>
<!-- 9&#45;&gt;10 -->
<g id="edge10" class="edge">
<title>9&#45;&gt;10</title>
<path fill="none" stroke="black" d="M441,-1278.21C441,-1269.31 441,-1260.46 441,-1251.92"/>
<polygon fill="black" stroke="black" points="444.5,-1251.67 441,-1241.67 437.5,-1251.67 444.5,-1251.67"/>
</g>
<!-- 11 -->
<g id="node12" class="node">
<title>11</title>
<polygon fill="none" stroke="black" points="119.5,-1042.5 119.5,-1078.5 762.5,-1078.5 762.5,-1042.5 119.5,-1042.5"/>
<text text-anchor="middle" x="156.5" y="-1057.4" font-family="Times,serif" font-size="12.00">11:astype</text>
<polyline fill="none" stroke="black" points="193.5,-1042.5 193.5,-1078.5 "/>
<text text-anchor="middle" x="478" y="-1057.4" font-family="Times,serif" font-size="12.00">[&quot;Time: [(&#39;Time&#39;, &lt;class &#39;pyrecdp.primitives.generators.datetime.DatetimeTransformer&#39;&gt;)]&quot;]</text>
</g>
<!-- 10&#45;&gt;11 -->
<g id="edge11" class="edge">
<title>10&#45;&gt;11</title>
<path fill="none" stroke="black" d="M441,-1115.42C441,-1106.09 441,-1096.9 441,-1088.82"/>
<polygon fill="black" stroke="black" points="444.5,-1088.59 441,-1078.59 437.5,-1088.59 444.5,-1088.59"/>
</g>
<!-- 12 -->
<g id="node13" class="node">
<title>12</title>
<polygon fill="none" stroke="black" points="61.5,-891.5 61.5,-1005.5 820.5,-1005.5 820.5,-891.5 61.5,-891.5"/>
<text text-anchor="middle" x="130" y="-945.4" font-family="Times,serif" font-size="12.00">12:datetime_feature</text>
<polyline fill="none" stroke="black" points="198.5,-891.5 198.5,-1005.5 "/>
<text text-anchor="start" x="206.5" y="-977.9" font-family="Times,serif" font-size="12.00">Time: </text>
<text text-anchor="start" x="206.5" y="-964.9" font-family="Times,serif" font-size="12.00">(&#39;Time__day&#39;, &lt;class &#39;featuretools.primitives.standard.transform.datetime.day.Day&#39;&gt;)</text>
<text text-anchor="start" x="206.5" y="-951.9" font-family="Times,serif" font-size="12.00">(&#39;Time__month&#39;, &lt;class &#39;featuretools.primitives.standard.transform.datetime.month.Month&#39;&gt;)</text>
<text text-anchor="start" x="206.5" y="-938.9" font-family="Times,serif" font-size="12.00">(&#39;Time__weekday&#39;, &lt;class &#39;featuretools.primitives.standard.transform.datetime.weekday.Weekday&#39;&gt;)</text>
<text text-anchor="start" x="206.5" y="-925.9" font-family="Times,serif" font-size="12.00">(&#39;Time__year&#39;, &lt;class &#39;featuretools.primitives.standard.transform.datetime.year.Year&#39;&gt;)</text>
<text text-anchor="start" x="206.5" y="-912.9" font-family="Times,serif" font-size="12.00">(&#39;Time__hour&#39;, &lt;class &#39;featuretools.primitives.standard.transform.datetime.hour.Hour&#39;&gt;)</text>
</g>
<!-- 11&#45;&gt;12 -->
<g id="edge12" class="edge">
<title>11&#45;&gt;12</title>
<path fill="none" stroke="black" d="M441,-1042.31C441,-1034.87 441,-1025.63 441,-1015.9"/>
<polygon fill="black" stroke="black" points="444.5,-1015.63 441,-1005.63 437.5,-1015.63 444.5,-1015.63"/>
</g>
<!-- 13 -->
<g id="node14" class="node">
<title>13</title>
<polygon fill="none" stroke="black" points="151,-662.5 151,-854.5 731,-854.5 731,-662.5 151,-662.5"/>
<text text-anchor="middle" x="213.5" y="-755.4" font-family="Times,serif" font-size="12.00">13:onehot_encode</text>
<polyline fill="none" stroke="black" points="276,-662.5 276,-854.5 "/>
<text text-anchor="start" x="284" y="-826.9" font-family="Times,serif" font-size="12.00">Use_Chip: [&#39;Chip Transaction&#39;, &#39;Swipe Transaction&#39;, &#39;Online Transaction&#39;]</text>
<text text-anchor="start" x="284" y="-813.9" font-family="Times,serif" font-size="12.00">Errors: </text>
<text text-anchor="start" x="284" y="-800.9" font-family="Times,serif" font-size="12.00">None</text>
<text text-anchor="start" x="284" y="-787.9" font-family="Times,serif" font-size="12.00">Insufficient Balance,</text>
<text text-anchor="start" x="284" y="-774.9" font-family="Times,serif" font-size="12.00">Technical Glitch,</text>
<text text-anchor="start" x="284" y="-761.9" font-family="Times,serif" font-size="12.00">Bad Expiration,</text>
<text text-anchor="start" x="284" y="-748.9" font-family="Times,serif" font-size="12.00">Bad CVV,</text>
<text text-anchor="start" x="284" y="-735.9" font-family="Times,serif" font-size="12.00">Bad PIN,</text>
<text text-anchor="start" x="284" y="-722.9" font-family="Times,serif" font-size="12.00">Bad Card Number,</text>
<text text-anchor="start" x="284" y="-709.9" font-family="Times,serif" font-size="12.00">Insufficient Balance,Technical Glitch,</text>
<text text-anchor="start" x="284" y="-696.9" font-family="Times,serif" font-size="12.00">Bad Zipcode,</text>
<text text-anchor="start" x="284" y="-683.9" font-family="Times,serif" font-size="12.00">Bad PIN,Insufficient Balance,</text>
</g>
<!-- 12&#45;&gt;13 -->
<g id="edge13" class="edge">
<title>12&#45;&gt;13</title>
<path fill="none" stroke="black" d="M441,-891.35C441,-882.94 441,-874.04 441,-865"/>
<polygon fill="black" stroke="black" points="444.5,-864.75 441,-854.75 437.5,-864.75 444.5,-864.75"/>
</g>
<!-- 14 -->
<g id="node15" class="node">
<title>14</title>
<polygon fill="none" stroke="black" points="109.5,-525.5 109.5,-625.5 772.5,-625.5 772.5,-525.5 109.5,-525.5"/>
<text text-anchor="middle" x="158" y="-572.4" font-family="Times,serif" font-size="12.00">14:categorify</text>
<polyline fill="none" stroke="black" points="206.5,-525.5 206.5,-625.5 "/>
<text text-anchor="start" x="214.5" y="-597.9" font-family="Times,serif" font-size="12.00">Time: (&#39;pipeline_default/Time_categorify_dict&#39;, &#39;Time__idx&#39;)</text>
<text text-anchor="start" x="214.5" y="-584.9" font-family="Times,serif" font-size="12.00">Amount: (&#39;pipeline_default/Amount_categorify_dict&#39;, &#39;Amount__idx&#39;)</text>
<text text-anchor="start" x="214.5" y="-571.9" font-family="Times,serif" font-size="12.00">Use_Chip: (&#39;pipeline_default/Use_Chip_categorify_dict&#39;, &#39;Use_Chip__idx&#39;)</text>
<text text-anchor="start" x="214.5" y="-558.9" font-family="Times,serif" font-size="12.00">Merchant_City: (&#39;pipeline_default/Merchant_City_categorify_dict&#39;, &#39;Merchant_City__idx&#39;)</text>
<text text-anchor="start" x="214.5" y="-545.9" font-family="Times,serif" font-size="12.00">Merchant_State: (&#39;pipeline_default/Merchant_State_categorify_dict&#39;, &#39;Merchant_State__idx&#39;)</text>
<text text-anchor="start" x="214.5" y="-532.9" font-family="Times,serif" font-size="12.00">Errors: (&#39;pipeline_default/Errors_categorify_dict&#39;, &#39;Errors__idx&#39;)</text>
</g>
<!-- 13&#45;&gt;14 -->
<g id="edge14" class="edge">
<title>13&#45;&gt;14</title>
<path fill="none" stroke="black" d="M441,-662.49C441,-653.51 441,-644.59 441,-636.09"/>
<polygon fill="black" stroke="black" points="444.5,-635.94 441,-625.94 437.5,-635.94 444.5,-635.94"/>
</g>
<!-- 15 -->
<g id="node16" class="node">
<title>15</title>
<polygon fill="none" stroke="black" points="114,-219.5 114,-488.5 768,-488.5 768,-219.5 114,-219.5"/>
<text text-anchor="middle" x="154.5" y="-350.9" font-family="Times,serif" font-size="12.00">15:rename</text>
<polyline fill="none" stroke="black" points="195,-219.5 195,-488.5 "/>
<text text-anchor="start" x="203" y="-460.9" font-family="Times,serif" font-size="12.00">Use_Chip__Chip Transaction: Use_Chip__Chip_Transaction</text>
<text text-anchor="start" x="203" y="-447.9" font-family="Times,serif" font-size="12.00">Use_Chip__Swipe Transaction: Use_Chip__Swipe_Transaction</text>
<text text-anchor="start" x="203" y="-434.9" font-family="Times,serif" font-size="12.00">Use_Chip__Online Transaction: Use_Chip__Online_Transaction</text>
<text text-anchor="start" x="203" y="-421.9" font-family="Times,serif" font-size="12.00">Errors__None: Errors__None</text>
<text text-anchor="start" x="203" y="-408.9" font-family="Times,serif" font-size="12.00">Errors__Insufficient Balance,: Errors__Insufficient_Balance</text>
<text text-anchor="start" x="203" y="-395.9" font-family="Times,serif" font-size="12.00">Errors__Technical Glitch,: Errors__Technical_Glitch</text>
<text text-anchor="start" x="203" y="-382.9" font-family="Times,serif" font-size="12.00">Errors__Bad Expiration,: Errors__Bad_Expiration</text>
<text text-anchor="start" x="203" y="-369.9" font-family="Times,serif" font-size="12.00">Errors__Bad CVV,: Errors__Bad_CVV</text>
<text text-anchor="start" x="203" y="-356.9" font-family="Times,serif" font-size="12.00">Errors__Bad PIN,: Errors__Bad_PIN</text>
<text text-anchor="start" x="203" y="-343.9" font-family="Times,serif" font-size="12.00">Errors__Bad Card Number,: Errors__Bad_Card_Number</text>
<text text-anchor="start" x="203" y="-330.9" font-family="Times,serif" font-size="12.00">Errors__Insufficient Balance,Technical Glitch,: Errors__Insufficient_BalanceTechnical_Glitch</text>
<text text-anchor="start" x="203" y="-317.9" font-family="Times,serif" font-size="12.00">Errors__Bad Zipcode,: Errors__Bad_Zipcode</text>
<text text-anchor="start" x="203" y="-304.9" font-family="Times,serif" font-size="12.00">Errors__Bad PIN,Insufficient Balance,: Errors__Bad_PINInsufficient_Balance</text>
<text text-anchor="start" x="203" y="-291.9" font-family="Times,serif" font-size="12.00">Time__idx: Time__idx</text>
<text text-anchor="start" x="203" y="-278.9" font-family="Times,serif" font-size="12.00">Amount__idx: Amount__idx</text>
<text text-anchor="start" x="203" y="-265.9" font-family="Times,serif" font-size="12.00">Use_Chip__idx: Use_Chip__idx</text>
<text text-anchor="start" x="203" y="-252.9" font-family="Times,serif" font-size="12.00">Merchant_City__idx: Merchant_City__idx</text>
<text text-anchor="start" x="203" y="-239.9" font-family="Times,serif" font-size="12.00">Merchant_State__idx: Merchant_State__idx</text>
<text text-anchor="start" x="203" y="-226.9" font-family="Times,serif" font-size="12.00">Errors__idx: Errors__idx</text>
</g>
<!-- 14&#45;&gt;15 -->
<g id="edge15" class="edge">
<title>14&#45;&gt;15</title>
<path fill="none" stroke="black" d="M441,-525.24C441,-516.98 441,-508.05 441,-498.77"/>
<polygon fill="black" stroke="black" points="444.5,-498.56 441,-488.56 437.5,-498.56 444.5,-498.56"/>
</g>
<!-- 16 -->
<g id="node17" class="node">
<title>16</title>
<polygon fill="none" stroke="black" points="180,-146.5 180,-182.5 702,-182.5 702,-146.5 180,-146.5"/>
<text text-anchor="middle" x="212" y="-161.4" font-family="Times,serif" font-size="12.00">16:drop</text>
<polyline fill="none" stroke="black" points="244,-146.5 244,-182.5 "/>
<text text-anchor="middle" x="473" y="-161.4" font-family="Times,serif" font-size="12.00">[&#39;Time&#39;, &#39;Amount&#39;, &#39;Use_Chip&#39;, &#39;Merchant_City&#39;, &#39;Merchant_State&#39;, &#39;Errors&#39;]</text>
</g>
<!-- 15&#45;&gt;16 -->
<g id="edge16" class="edge">
<title>15&#45;&gt;16</title>
<path fill="none" stroke="black" d="M441,-219.48C441,-209.79 441,-200.79 441,-193.03"/>
<polygon fill="black" stroke="black" points="444.5,-192.94 441,-182.94 437.5,-192.94 444.5,-192.94"/>
</g>
<!-- 17 -->
<g id="node18" class="node">
<title>17</title>
<polygon fill="none" stroke="black" points="347.5,-73.5 347.5,-109.5 534.5,-109.5 534.5,-73.5 347.5,-73.5"/>
<text text-anchor="middle" x="399.5" y="-88.4" font-family="Times,serif" font-size="12.00">17:DataFrame</text>
<polyline fill="none" stroke="black" points="451.5,-73.5 451.5,-109.5 "/>
<text text-anchor="middle" x="493" y="-88.4" font-family="Times,serif" font-size="12.00">main_table</text>
</g>
<!-- 16&#45;&gt;17 -->
<g id="edge17" class="edge">
<title>16&#45;&gt;17</title>
<path fill="none" stroke="black" d="M441,-146.31C441,-138.29 441,-128.55 441,-119.57"/>
<polygon fill="black" stroke="black" points="444.5,-119.53 441,-109.53 437.5,-119.53 444.5,-119.53"/>
</g>
<!-- 18 -->
<g id="node19" class="node">
<title>18</title>
<polygon fill="none" stroke="black" points="155.5,-0.5 155.5,-36.5 726.5,-36.5 726.5,-0.5 155.5,-0.5"/>
<text text-anchor="middle" x="200" y="-15.4" font-family="Times,serif" font-size="12.00">18:lightgbm</text>
<polyline fill="none" stroke="black" points="244.5,-0.5 244.5,-36.5 "/>
<text text-anchor="middle" x="485.5" y="-15.4" font-family="Times,serif" font-size="12.00">[&#39;label: Is_Fraud&#39;, &#39;objective: binary&#39;, &#39;train_test_splitter: None&#39;, &#39;metrics: auc&#39;]</text>
</g>
<!-- 17&#45;&gt;18 -->
<g id="edge18" class="edge">
<title>17&#45;&gt;18</title>
<path fill="none" stroke="black" d="M441,-73.31C441,-65.29 441,-55.55 441,-46.57"/>
<polygon fill="black" stroke="black" points="444.5,-46.53 441,-36.53 437.5,-46.53 444.5,-46.53"/>
</g>
</g>
</svg>
