<?xml version="1.0" encoding="UTF-8" standalone="no"?>
<!DOCTYPE svg PUBLIC "-//W3C//DTD SVG 1.1//EN"
 "http://www.w3.org/Graphics/SVG/1.1/DTD/svg11.dtd">
<!-- Generated by graphviz version 2.43.0 (0)
 -->
<!-- Title: %3 Pages: 1 -->
<svg width="1237pt" height="1333pt"
 viewBox="0.00 0.00 1237.00 1333.00" xmlns="http://www.w3.org/2000/svg" xmlns:xlink="http://www.w3.org/1999/xlink">
<g id="graph0" class="graph" transform="scale(1 1) rotate(0) translate(4 1329)">
<title>%3</title>
<polygon fill="white" stroke="transparent" points="-4,4 -4,-1329 1233,-1329 1233,4 -4,4"/>
<!-- 0 -->
<g id="node1" class="node">
<title>0</title>
<polygon fill="none" stroke="black" points="524.5,-1288.5 524.5,-1324.5 704.5,-1324.5 704.5,-1288.5 524.5,-1288.5"/>
<text text-anchor="middle" x="573" y="-1303.4" font-family="Times,serif" font-size="12.00">0:DataFrame</text>
<polyline fill="none" stroke="black" points="621.5,-1288.5 621.5,-1324.5 "/>
<text text-anchor="middle" x="663" y="-1303.4" font-family="Times,serif" font-size="12.00">main_table</text>
</g>
<!-- 1 -->
<g id="node2" class="node">
<title>1</title>
<polygon fill="none" stroke="black" points="439.5,-1215.5 439.5,-1251.5 789.5,-1251.5 789.5,-1215.5 439.5,-1215.5"/>
<text text-anchor="middle" x="483.5" y="-1230.4" font-family="Times,serif" font-size="12.00">1:type_infer</text>
<polyline fill="none" stroke="black" points="527.5,-1215.5 527.5,-1251.5 "/>
<text text-anchor="middle" x="658.5" y="-1230.4" font-family="Times,serif" font-size="12.00">[(&#39;fare_amount&#39;, [&#39;is_numeric&#39;, &#39;is_float&#39;])]</text>
</g>
<!-- 0&#45;&gt;1 -->
<g id="edge1" class="edge">
<title>0&#45;&gt;1</title>
<path fill="none" stroke="black" d="M614.5,-1288.31C614.5,-1280.29 614.5,-1270.55 614.5,-1261.57"/>
<polygon fill="black" stroke="black" points="618,-1261.53 614.5,-1251.53 611,-1261.53 618,-1261.53"/>
</g>
<!-- 2 -->
<g id="node3" class="node">
<title>2</title>
<polygon fill="none" stroke="black" points="275.5,-1142.5 275.5,-1178.5 953.5,-1178.5 953.5,-1142.5 275.5,-1142.5"/>
<text text-anchor="middle" x="309" y="-1157.4" font-family="Times,serif" font-size="12.00">2:astype</text>
<polyline fill="none" stroke="black" points="342.5,-1142.5 342.5,-1178.5 "/>
<text text-anchor="middle" x="648" y="-1157.4" font-family="Times,serif" font-size="12.00">[&quot;fare_amount: [(&#39;fare_amount&#39;, &lt;class &#39;pyrecdp.primitives.generators.type.FloatTransformer&#39;&gt;)]&quot;]</text>
</g>
<!-- 1&#45;&gt;2 -->
<g id="edge2" class="edge">
<title>1&#45;&gt;2</title>
<path fill="none" stroke="black" d="M614.5,-1215.31C614.5,-1207.29 614.5,-1197.55 614.5,-1188.57"/>
<polygon fill="black" stroke="black" points="618,-1188.53 614.5,-1178.53 611,-1188.53 618,-1188.53"/>
</g>
<!-- 3 -->
<g id="node4" class="node">
<title>3</title>
<polygon fill="none" stroke="black" points="521.5,-1069.5 521.5,-1105.5 707.5,-1105.5 707.5,-1069.5 521.5,-1069.5"/>
<text text-anchor="middle" x="551" y="-1084.4" font-family="Times,serif" font-size="12.00">3:fillna</text>
<polyline fill="none" stroke="black" points="580.5,-1069.5 580.5,-1105.5 "/>
<text text-anchor="middle" x="644" y="-1084.4" font-family="Times,serif" font-size="12.00">[&#39;fare_amount: &#45;1&#39;]</text>
</g>
<!-- 2&#45;&gt;3 -->
<g id="edge3" class="edge">
<title>2&#45;&gt;3</title>
<path fill="none" stroke="black" d="M614.5,-1142.31C614.5,-1134.29 614.5,-1124.55 614.5,-1115.57"/>
<polygon fill="black" stroke="black" points="618,-1115.53 614.5,-1105.53 611,-1115.53 618,-1115.53"/>
</g>
<!-- 4 -->
<g id="node5" class="node">
<title>4</title>
<polygon fill="none" stroke="black" points="524.5,-996.5 524.5,-1032.5 704.5,-1032.5 704.5,-996.5 524.5,-996.5"/>
<text text-anchor="middle" x="573" y="-1011.4" font-family="Times,serif" font-size="12.00">4:DataFrame</text>
<polyline fill="none" stroke="black" points="621.5,-996.5 621.5,-1032.5 "/>
<text text-anchor="middle" x="663" y="-1011.4" font-family="Times,serif" font-size="12.00">main_table</text>
</g>
<!-- 3&#45;&gt;4 -->
<g id="edge4" class="edge">
<title>3&#45;&gt;4</title>
<path fill="none" stroke="black" d="M614.5,-1069.31C614.5,-1061.29 614.5,-1051.55 614.5,-1042.57"/>
<polygon fill="black" stroke="black" points="618,-1042.53 614.5,-1032.53 611,-1042.53 618,-1042.53"/>
</g>
<!-- 5 -->
<g id="node6" class="node">
<title>5</title>
<polygon fill="none" stroke="black" points="424,-859.5 424,-959.5 805,-959.5 805,-859.5 424,-859.5"/>
<text text-anchor="middle" x="468" y="-906.4" font-family="Times,serif" font-size="12.00">5:type_infer</text>
<polyline fill="none" stroke="black" points="512,-859.5 512,-959.5 "/>
<text text-anchor="start" x="520" y="-931.9" font-family="Times,serif" font-size="12.00">(&#39;pickup_datetime&#39;, [&#39;is_string&#39;, &#39;is_datetime&#39;])</text>
<text text-anchor="start" x="520" y="-918.9" font-family="Times,serif" font-size="12.00">(&#39;pickup_longitude&#39;, [&#39;is_numeric&#39;, &#39;is_float&#39;])</text>
<text text-anchor="start" x="520" y="-905.9" font-family="Times,serif" font-size="12.00">(&#39;pickup_latitude&#39;, [&#39;is_numeric&#39;, &#39;is_float&#39;])</text>
<text text-anchor="start" x="520" y="-892.9" font-family="Times,serif" font-size="12.00">(&#39;dropoff_longitude&#39;, [&#39;is_numeric&#39;, &#39;is_float&#39;])</text>
<text text-anchor="start" x="520" y="-879.9" font-family="Times,serif" font-size="12.00">(&#39;dropoff_latitude&#39;, [&#39;is_numeric&#39;, &#39;is_float&#39;])</text>
<text text-anchor="start" x="520" y="-866.9" font-family="Times,serif" font-size="12.00">(&#39;passenger_count&#39;, [&#39;is_integer&#39;, &#39;is_numeric&#39;])</text>
</g>
<!-- 4&#45;&gt;5 -->
<g id="edge5" class="edge">
<title>4&#45;&gt;5</title>
<path fill="none" stroke="black" d="M614.5,-996.49C614.5,-988.94 614.5,-979.56 614.5,-969.8"/>
<polygon fill="black" stroke="black" points="618,-969.55 614.5,-959.55 611,-969.55 618,-969.55"/>
</g>
<!-- 6 -->
<g id="node7" class="node">
<title>6</title>
<polygon fill="none" stroke="black" points="364,-786.5 364,-822.5 865,-822.5 865,-786.5 364,-786.5"/>
<text text-anchor="middle" x="393" y="-801.4" font-family="Times,serif" font-size="12.00">6:tuple</text>
<polyline fill="none" stroke="black" points="422,-786.5 422,-822.5 "/>
<text text-anchor="middle" x="643.5" y="-801.4" font-family="Times,serif" font-size="12.00">[&quot;src: [&#39;pickup_latitude&#39;, &#39;pickup_longitude&#39;]&quot;, &#39;dst: pickup_coordinates&#39;]</text>
</g>
<!-- 5&#45;&gt;6 -->
<g id="edge6" class="edge">
<title>5&#45;&gt;6</title>
<path fill="none" stroke="black" d="M614.5,-859.41C614.5,-850.19 614.5,-840.86 614.5,-832.62"/>
<polygon fill="black" stroke="black" points="618,-832.51 614.5,-822.51 611,-832.51 618,-832.51"/>
</g>
<!-- 7 -->
<g id="node8" class="node">
<title>7</title>
<polygon fill="none" stroke="black" points="358.5,-713.5 358.5,-749.5 870.5,-749.5 870.5,-713.5 358.5,-713.5"/>
<text text-anchor="middle" x="387.5" y="-728.4" font-family="Times,serif" font-size="12.00">7:tuple</text>
<polyline fill="none" stroke="black" points="416.5,-713.5 416.5,-749.5 "/>
<text text-anchor="middle" x="643.5" y="-728.4" font-family="Times,serif" font-size="12.00">[&quot;src: [&#39;dropoff_latitude&#39;, &#39;dropoff_longitude&#39;]&quot;, &#39;dst: dropoff_coordinates&#39;]</text>
</g>
<!-- 6&#45;&gt;7 -->
<g id="edge7" class="edge">
<title>6&#45;&gt;7</title>
<path fill="none" stroke="black" d="M614.5,-786.31C614.5,-778.29 614.5,-768.55 614.5,-759.57"/>
<polygon fill="black" stroke="black" points="618,-759.53 614.5,-749.53 611,-759.53 618,-759.53"/>
</g>
<!-- 8 -->
<g id="node9" class="node">
<title>8</title>
<polygon fill="none" stroke="black" points="255,-589.5 255,-676.5 974,-676.5 974,-589.5 255,-589.5"/>
<text text-anchor="middle" x="288.5" y="-629.9" font-family="Times,serif" font-size="12.00">8:astype</text>
<polyline fill="none" stroke="black" points="322,-589.5 322,-676.5 "/>
<text text-anchor="start" x="330" y="-648.9" font-family="Times,serif" font-size="12.00">pickup_longitude: [(&#39;pickup_longitude&#39;, &lt;class &#39;pyrecdp.primitives.generators.type.FloatTransformer&#39;&gt;)]</text>
<text text-anchor="start" x="330" y="-635.9" font-family="Times,serif" font-size="12.00">pickup_latitude: [(&#39;pickup_latitude&#39;, &lt;class &#39;pyrecdp.primitives.generators.type.FloatTransformer&#39;&gt;)]</text>
<text text-anchor="start" x="330" y="-622.9" font-family="Times,serif" font-size="12.00">dropoff_longitude: [(&#39;dropoff_longitude&#39;, &lt;class &#39;pyrecdp.primitives.generators.type.FloatTransformer&#39;&gt;)]</text>
<text text-anchor="start" x="330" y="-609.9" font-family="Times,serif" font-size="12.00">dropoff_latitude: [(&#39;dropoff_latitude&#39;, &lt;class &#39;pyrecdp.primitives.generators.type.FloatTransformer&#39;&gt;)]</text>
<text text-anchor="start" x="330" y="-596.9" font-family="Times,serif" font-size="12.00">passenger_count: [(&#39;passenger_count&#39;, &lt;class &#39;pyrecdp.primitives.generators.type.IntTransformer&#39;&gt;)]</text>
</g>
<!-- 7&#45;&gt;8 -->
<g id="edge8" class="edge">
<title>7&#45;&gt;8</title>
<path fill="none" stroke="black" d="M614.5,-713.25C614.5,-705.76 614.5,-696.55 614.5,-687.09"/>
<polygon fill="black" stroke="black" points="618,-686.8 614.5,-676.8 611,-686.8 618,-686.8"/>
</g>
<!-- 9 -->
<g id="node10" class="node">
<title>9</title>
<polygon fill="none" stroke="black" points="182,-516.5 182,-552.5 1047,-552.5 1047,-516.5 182,-516.5"/>
<text text-anchor="middle" x="211.5" y="-531.4" font-family="Times,serif" font-size="12.00">9:fillna</text>
<polyline fill="none" stroke="black" points="241,-516.5 241,-552.5 "/>
<text text-anchor="middle" x="644" y="-531.4" font-family="Times,serif" font-size="12.00">[&#39;pickup_datetime: 0&#39;, &#39;pickup_longitude: &#45;1&#39;, &#39;pickup_latitude: &#45;1&#39;, &#39;dropoff_longitude: &#45;1&#39;, &#39;dropoff_latitude: &#45;1&#39;, &#39;passenger_count: &#45;1&#39;]</text>
</g>
<!-- 8&#45;&gt;9 -->
<g id="edge9" class="edge">
<title>8&#45;&gt;9</title>
<path fill="none" stroke="black" d="M614.5,-589.39C614.5,-580.41 614.5,-571.15 614.5,-562.91"/>
<polygon fill="black" stroke="black" points="618,-562.75 614.5,-552.75 611,-562.75 618,-562.75"/>
</g>
<!-- 10 -->
<g id="node11" class="node">
<title>10</title>
<polygon fill="none" stroke="black" points="224,-443.5 224,-479.5 1005,-479.5 1005,-443.5 224,-443.5"/>
<text text-anchor="middle" x="261" y="-458.4" font-family="Times,serif" font-size="12.00">10:astype</text>
<polyline fill="none" stroke="black" points="298,-443.5 298,-479.5 "/>
<text text-anchor="middle" x="651.5" y="-458.4" font-family="Times,serif" font-size="12.00">[&quot;pickup_datetime: [(&#39;pickup_datetime&#39;, &lt;class &#39;pyrecdp.primitives.generators.datetime.DatetimeTransformer&#39;&gt;)]&quot;]</text>
</g>
<!-- 9&#45;&gt;10 -->
<g id="edge10" class="edge">
<title>9&#45;&gt;10</title>
<path fill="none" stroke="black" d="M614.5,-516.31C614.5,-508.29 614.5,-498.55 614.5,-489.57"/>
<polygon fill="black" stroke="black" points="618,-489.53 614.5,-479.53 611,-489.53 618,-489.53"/>
</g>
<!-- 11 -->
<g id="node12" class="node">
<title>11</title>
<polygon fill="none" stroke="black" points="200.5,-292.5 200.5,-406.5 1028.5,-406.5 1028.5,-292.5 200.5,-292.5"/>
<text text-anchor="middle" x="269" y="-346.4" font-family="Times,serif" font-size="12.00">11:datetime_feature</text>
<polyline fill="none" stroke="black" points="337.5,-292.5 337.5,-406.5 "/>
<text text-anchor="start" x="345.5" y="-378.9" font-family="Times,serif" font-size="12.00">pickup_datetime: </text>
<text text-anchor="start" x="345.5" y="-365.9" font-family="Times,serif" font-size="12.00">(&#39;pickup_datetime__day&#39;, &lt;class &#39;featuretools.primitives.standard.transform.datetime.day.Day&#39;&gt;)</text>
<text text-anchor="start" x="345.5" y="-352.9" font-family="Times,serif" font-size="12.00">(&#39;pickup_datetime__month&#39;, &lt;class &#39;featuretools.primitives.standard.transform.datetime.month.Month&#39;&gt;)</text>
<text text-anchor="start" x="345.5" y="-339.9" font-family="Times,serif" font-size="12.00">(&#39;pickup_datetime__weekday&#39;, &lt;class &#39;featuretools.primitives.standard.transform.datetime.weekday.Weekday&#39;&gt;)</text>
<text text-anchor="start" x="345.5" y="-326.9" font-family="Times,serif" font-size="12.00">(&#39;pickup_datetime__year&#39;, &lt;class &#39;featuretools.primitives.standard.transform.datetime.year.Year&#39;&gt;)</text>
<text text-anchor="start" x="345.5" y="-313.9" font-family="Times,serif" font-size="12.00">(&#39;pickup_datetime__hour&#39;, &lt;class &#39;featuretools.primitives.standard.transform.datetime.hour.Hour&#39;&gt;)</text>
</g>
<!-- 10&#45;&gt;11 -->
<g id="edge11" class="edge">
<title>10&#45;&gt;11</title>
<path fill="none" stroke="black" d="M614.5,-443.31C614.5,-435.87 614.5,-426.63 614.5,-416.9"/>
<polygon fill="black" stroke="black" points="618,-416.63 614.5,-406.63 611,-416.63 618,-416.63"/>
</g>
<!-- 12 -->
<g id="node13" class="node">
<title>12</title>
<polygon fill="none" stroke="black" points="0,-219.5 0,-255.5 1229,-255.5 1229,-219.5 0,-219.5"/>
<text text-anchor="middle" x="47" y="-234.4" font-family="Times,serif" font-size="12.00">12:haversine</text>
<polyline fill="none" stroke="black" points="94,-219.5 94,-255.5 "/>
<text text-anchor="middle" x="661.5" y="-234.4" font-family="Times,serif" font-size="12.00">[&quot;[&#39;pickup_coordinates&#39;, &#39;dropoff_coordinates&#39;]: (&#39;haversine_pickup_coordinates_dropoff_coordinates&#39;, &lt;class &#39;featuretools.primitives.standard.transform.latlong.haversine.Haversine&#39;&gt;)&quot;]</text>
</g>
<!-- 11&#45;&gt;12 -->
<g id="edge12" class="edge">
<title>11&#45;&gt;12</title>
<path fill="none" stroke="black" d="M614.5,-292.21C614.5,-283.05 614.5,-273.94 614.5,-265.9"/>
<polygon fill="black" stroke="black" points="618,-265.68 614.5,-255.68 611,-265.68 618,-265.68"/>
</g>
<!-- 13 -->
<g id="node14" class="node">
<title>13</title>
<polygon fill="none" stroke="black" points="384,-146.5 384,-182.5 845,-182.5 845,-146.5 384,-146.5"/>
<text text-anchor="middle" x="416" y="-161.4" font-family="Times,serif" font-size="12.00">13:drop</text>
<polyline fill="none" stroke="black" points="448,-146.5 448,-182.5 "/>
<text text-anchor="middle" x="646.5" y="-161.4" font-family="Times,serif" font-size="12.00">[&#39;pickup_datetime&#39;, &#39;pickup_coordinates&#39;, &#39;dropoff_coordinates&#39;]</text>
</g>
<!-- 12&#45;&gt;13 -->
<g id="edge13" class="edge">
<title>12&#45;&gt;13</title>
<path fill="none" stroke="black" d="M614.5,-219.31C614.5,-211.29 614.5,-201.55 614.5,-192.57"/>
<polygon fill="black" stroke="black" points="618,-192.53 614.5,-182.53 611,-192.53 618,-192.53"/>
</g>
<!-- 14 -->
<g id="node15" class="node">
<title>14</title>
<polygon fill="none" stroke="black" points="521,-73.5 521,-109.5 708,-109.5 708,-73.5 521,-73.5"/>
<text text-anchor="middle" x="573" y="-88.4" font-family="Times,serif" font-size="12.00">14:DataFrame</text>
<polyline fill="none" stroke="black" points="625,-73.5 625,-109.5 "/>
<text text-anchor="middle" x="666.5" y="-88.4" font-family="Times,serif" font-size="12.00">main_table</text>
</g>
<!-- 13&#45;&gt;14 -->
<g id="edge14" class="edge">
<title>13&#45;&gt;14</title>
<path fill="none" stroke="black" d="M614.5,-146.31C614.5,-138.29 614.5,-128.55 614.5,-119.57"/>
<polygon fill="black" stroke="black" points="618,-119.53 614.5,-109.53 611,-119.53 618,-119.53"/>
</g>
<!-- 15 -->
<g id="node16" class="node">
<title>15</title>
<polygon fill="none" stroke="black" points="300.5,-0.5 300.5,-36.5 928.5,-36.5 928.5,-0.5 300.5,-0.5"/>
<text text-anchor="middle" x="345" y="-15.4" font-family="Times,serif" font-size="12.00">15:lightgbm</text>
<polyline fill="none" stroke="black" points="389.5,-0.5 389.5,-36.5 "/>
<text text-anchor="middle" x="659" y="-15.4" font-family="Times,serif" font-size="12.00">[&#39;label: fare_amount&#39;, &#39;objective: regression&#39;, &#39;train_test_splitter: None&#39;, &#39;metrics: rmse&#39;]</text>
</g>
<!-- 14&#45;&gt;15 -->
<g id="edge15" class="edge">
<title>14&#45;&gt;15</title>
<path fill="none" stroke="black" d="M614.5,-73.31C614.5,-65.29 614.5,-55.55 614.5,-46.57"/>
<polygon fill="black" stroke="black" points="618,-46.53 614.5,-36.53 611,-46.53 618,-46.53"/>
</g>
</g>
</svg>
