<?xml version="1.0" encoding="UTF-8" standalone="no"?>
<!DOCTYPE svg PUBLIC "-//W3C//DTD SVG 1.1//EN"
 "http://www.w3.org/Graphics/SVG/1.1/DTD/svg11.dtd">
<!-- Generated by graphviz version 2.43.0 (0)
 -->
<!-- Title: %3 Pages: 1 -->
<svg width="1124pt" height="1531pt"
 viewBox="0.00 0.00 1124.00 1531.00" xmlns="http://www.w3.org/2000/svg" xmlns:xlink="http://www.w3.org/1999/xlink">
<g id="graph0" class="graph" transform="scale(1 1) rotate(0) translate(4 1527)">
<title>%3</title>
<polygon fill="white" stroke="transparent" points="-4,4 -4,-1527 1120,-1527 1120,4 -4,4"/>
<!-- 0 -->
<g id="node1" class="node">
<title>0</title>
<polygon fill="none" stroke="black" points="468,-1486.5 468,-1522.5 648,-1522.5 648,-1486.5 468,-1486.5"/>
<text text-anchor="middle" x="516.5" y="-1501.4" font-family="Times,serif" font-size="12.00">0:DataFrame</text>
<polyline fill="none" stroke="black" points="565,-1486.5 565,-1522.5 "/>
<text text-anchor="middle" x="606.5" y="-1501.4" font-family="Times,serif" font-size="12.00">main_table</text>
</g>
<!-- 1 -->
<g id="node2" class="node">
<title>1</title>
<polygon fill="none" stroke="black" points="380.5,-1413.5 380.5,-1449.5 735.5,-1449.5 735.5,-1413.5 380.5,-1413.5"/>
<text text-anchor="middle" x="424.5" y="-1428.4" font-family="Times,serif" font-size="12.00">1:type_infer</text>
<polyline fill="none" stroke="black" points="468.5,-1413.5 468.5,-1449.5 "/>
<text text-anchor="middle" x="602" y="-1428.4" font-family="Times,serif" font-size="12.00">[(&#39;star_rating&#39;, [&#39;is_integer&#39;, &#39;is_numeric&#39;])]</text>
</g>
<!-- 0&#45;&gt;1 -->
<g id="edge1" class="edge">
<title>0&#45;&gt;1</title>
<path fill="none" stroke="black" d="M558,-1486.31C558,-1478.29 558,-1468.55 558,-1459.57"/>
<polygon fill="black" stroke="black" points="561.5,-1459.53 558,-1449.53 554.5,-1459.53 561.5,-1459.53"/>
</g>
<!-- 2 -->
<g id="node3" class="node">
<title>2</title>
<polygon fill="none" stroke="black" points="236,-1340.5 236,-1376.5 880,-1376.5 880,-1340.5 236,-1340.5"/>
<text text-anchor="middle" x="269.5" y="-1355.4" font-family="Times,serif" font-size="12.00">2:astype</text>
<polyline fill="none" stroke="black" points="303,-1340.5 303,-1376.5 "/>
<text text-anchor="middle" x="591.5" y="-1355.4" font-family="Times,serif" font-size="12.00">[&quot;star_rating: [(&#39;star_rating&#39;, &lt;class &#39;pyrecdp.primitives.generators.type.IntTransformer&#39;&gt;)]&quot;]</text>
</g>
<!-- 1&#45;&gt;2 -->
<g id="edge2" class="edge">
<title>1&#45;&gt;2</title>
<path fill="none" stroke="black" d="M558,-1413.31C558,-1405.29 558,-1395.55 558,-1386.57"/>
<polygon fill="black" stroke="black" points="561.5,-1386.53 558,-1376.53 554.5,-1386.53 561.5,-1386.53"/>
</g>
<!-- 3 -->
<g id="node4" class="node">
<title>3</title>
<polygon fill="none" stroke="black" points="470,-1267.5 470,-1303.5 646,-1303.5 646,-1267.5 470,-1267.5"/>
<text text-anchor="middle" x="499.5" y="-1282.4" font-family="Times,serif" font-size="12.00">3:fillna</text>
<polyline fill="none" stroke="black" points="529,-1267.5 529,-1303.5 "/>
<text text-anchor="middle" x="587.5" y="-1282.4" font-family="Times,serif" font-size="12.00">[&#39;star_rating: &#45;1&#39;]</text>
</g>
<!-- 2&#45;&gt;3 -->
<g id="edge3" class="edge">
<title>2&#45;&gt;3</title>
<path fill="none" stroke="black" d="M558,-1340.31C558,-1332.29 558,-1322.55 558,-1313.57"/>
<polygon fill="black" stroke="black" points="561.5,-1313.53 558,-1303.53 554.5,-1313.53 561.5,-1313.53"/>
</g>
<!-- 4 -->
<g id="node5" class="node">
<title>4</title>
<polygon fill="none" stroke="black" points="468,-1194.5 468,-1230.5 648,-1230.5 648,-1194.5 468,-1194.5"/>
<text text-anchor="middle" x="516.5" y="-1209.4" font-family="Times,serif" font-size="12.00">4:DataFrame</text>
<polyline fill="none" stroke="black" points="565,-1194.5 565,-1230.5 "/>
<text text-anchor="middle" x="606.5" y="-1209.4" font-family="Times,serif" font-size="12.00">main_table</text>
</g>
<!-- 3&#45;&gt;4 -->
<g id="edge4" class="edge">
<title>3&#45;&gt;4</title>
<path fill="none" stroke="black" d="M558,-1267.31C558,-1259.29 558,-1249.55 558,-1240.57"/>
<polygon fill="black" stroke="black" points="561.5,-1240.53 558,-1230.53 554.5,-1240.53 561.5,-1240.53"/>
</g>
<!-- 5 -->
<g id="node6" class="node">
<title>5</title>
<polygon fill="none" stroke="black" points="324,-953.5 324,-1157.5 792,-1157.5 792,-953.5 324,-953.5"/>
<text text-anchor="middle" x="368" y="-1052.4" font-family="Times,serif" font-size="12.00">5:type_infer</text>
<polyline fill="none" stroke="black" points="412,-953.5 412,-1157.5 "/>
<text text-anchor="start" x="420" y="-1129.9" font-family="Times,serif" font-size="12.00">(&#39;marketplace&#39;, [&#39;is_string&#39;, &#39;is_categorical&#39;, &#39;is_onehot&#39;])</text>
<text text-anchor="start" x="420" y="-1116.9" font-family="Times,serif" font-size="12.00">(&#39;customer_id&#39;, [&#39;is_integer&#39;, &#39;is_numeric&#39;])</text>
<text text-anchor="start" x="420" y="-1103.9" font-family="Times,serif" font-size="12.00">(&#39;review_id&#39;, [&#39;is_string&#39;])</text>
<text text-anchor="start" x="420" y="-1090.9" font-family="Times,serif" font-size="12.00">(&#39;product_id&#39;, [&#39;is_string&#39;, &#39;is_numeric&#39;])</text>
<text text-anchor="start" x="420" y="-1077.9" font-family="Times,serif" font-size="12.00">(&#39;product_parent&#39;, [&#39;is_integer&#39;, &#39;is_numeric&#39;])</text>
<text text-anchor="start" x="420" y="-1064.9" font-family="Times,serif" font-size="12.00">(&#39;product_title&#39;, [&#39;is_text&#39;, &#39;is_string&#39;])</text>
<text text-anchor="start" x="420" y="-1051.9" font-family="Times,serif" font-size="12.00">(&#39;product_category&#39;, [&#39;is_string&#39;, &#39;is_categorical&#39;, &#39;is_onehot&#39;])</text>
<text text-anchor="start" x="420" y="-1038.9" font-family="Times,serif" font-size="12.00">(&#39;helpful_votes&#39;, [&#39;is_integer&#39;, &#39;is_numeric&#39;])</text>
<text text-anchor="start" x="420" y="-1025.9" font-family="Times,serif" font-size="12.00">(&#39;total_votes&#39;, [&#39;is_integer&#39;, &#39;is_numeric&#39;])</text>
<text text-anchor="start" x="420" y="-1012.9" font-family="Times,serif" font-size="12.00">(&#39;vine&#39;, [&#39;is_string&#39;, &#39;is_categorical&#39;, &#39;is_onehot&#39;])</text>
<text text-anchor="start" x="420" y="-999.9" font-family="Times,serif" font-size="12.00">(&#39;verified_purchase&#39;, [&#39;is_string&#39;, &#39;is_categorical&#39;, &#39;is_onehot&#39;])</text>
<text text-anchor="start" x="420" y="-986.9" font-family="Times,serif" font-size="12.00">(&#39;review_headline&#39;, [&#39;is_string&#39;])</text>
<text text-anchor="start" x="420" y="-973.9" font-family="Times,serif" font-size="12.00">(&#39;review_body&#39;, [&#39;is_string&#39;])</text>
<text text-anchor="start" x="420" y="-960.9" font-family="Times,serif" font-size="12.00">(&#39;review_date&#39;, [&#39;is_string&#39;, &#39;is_categorical&#39;])</text>
</g>
<!-- 4&#45;&gt;5 -->
<g id="edge5" class="edge">
<title>4&#45;&gt;5</title>
<path fill="none" stroke="black" d="M558,-1194.32C558,-1187.11 558,-1178.07 558,-1168.09"/>
<polygon fill="black" stroke="black" points="561.5,-1167.84 558,-1157.84 554.5,-1167.84 561.5,-1167.84"/>
</g>
<!-- 6 -->
<g id="node7" class="node">
<title>6</title>
<polygon fill="none" stroke="black" points="219.5,-842.5 219.5,-916.5 896.5,-916.5 896.5,-842.5 219.5,-842.5"/>
<text text-anchor="middle" x="253" y="-876.4" font-family="Times,serif" font-size="12.00">6:astype</text>
<polyline fill="none" stroke="black" points="286.5,-842.5 286.5,-916.5 "/>
<text text-anchor="start" x="294.5" y="-888.9" font-family="Times,serif" font-size="12.00">customer_id: [(&#39;customer_id&#39;, &lt;class &#39;pyrecdp.primitives.generators.type.IntTransformer&#39;&gt;)]</text>
<text text-anchor="start" x="294.5" y="-875.9" font-family="Times,serif" font-size="12.00">product_parent: [(&#39;product_parent&#39;, &lt;class &#39;pyrecdp.primitives.generators.type.IntTransformer&#39;&gt;)]</text>
<text text-anchor="start" x="294.5" y="-862.9" font-family="Times,serif" font-size="12.00">helpful_votes: [(&#39;helpful_votes&#39;, &lt;class &#39;pyrecdp.primitives.generators.type.IntTransformer&#39;&gt;)]</text>
<text text-anchor="start" x="294.5" y="-849.9" font-family="Times,serif" font-size="12.00">total_votes: [(&#39;total_votes&#39;, &lt;class &#39;pyrecdp.primitives.generators.type.IntTransformer&#39;&gt;)]</text>
</g>
<!-- 5&#45;&gt;6 -->
<g id="edge6" class="edge">
<title>5&#45;&gt;6</title>
<path fill="none" stroke="black" d="M558,-953.28C558,-944.14 558,-935.21 558,-926.91"/>
<polygon fill="black" stroke="black" points="561.5,-926.77 558,-916.77 554.5,-926.77 561.5,-926.77"/>
</g>
<!-- 7 -->
<g id="node8" class="node">
<title>7</title>
<polygon fill="none" stroke="black" points="463,-601.5 463,-805.5 653,-805.5 653,-601.5 463,-601.5"/>
<text text-anchor="middle" x="492.5" y="-700.4" font-family="Times,serif" font-size="12.00">7:fillna</text>
<polyline fill="none" stroke="black" points="522,-601.5 522,-805.5 "/>
<text text-anchor="start" x="530" y="-777.9" font-family="Times,serif" font-size="12.00">marketplace: </text>
<text text-anchor="start" x="530" y="-764.9" font-family="Times,serif" font-size="12.00">customer_id: &#45;1</text>
<text text-anchor="start" x="530" y="-751.9" font-family="Times,serif" font-size="12.00">review_id: </text>
<text text-anchor="start" x="530" y="-738.9" font-family="Times,serif" font-size="12.00">product_id: &#45;1</text>
<text text-anchor="start" x="530" y="-725.9" font-family="Times,serif" font-size="12.00">product_parent: &#45;1</text>
<text text-anchor="start" x="530" y="-712.9" font-family="Times,serif" font-size="12.00">product_title: </text>
<text text-anchor="start" x="530" y="-699.9" font-family="Times,serif" font-size="12.00">product_category: </text>
<text text-anchor="start" x="530" y="-686.9" font-family="Times,serif" font-size="12.00">helpful_votes: &#45;1</text>
<text text-anchor="start" x="530" y="-673.9" font-family="Times,serif" font-size="12.00">total_votes: &#45;1</text>
<text text-anchor="start" x="530" y="-660.9" font-family="Times,serif" font-size="12.00">vine: </text>
<text text-anchor="start" x="530" y="-647.9" font-family="Times,serif" font-size="12.00">verified_purchase: </text>
<text text-anchor="start" x="530" y="-634.9" font-family="Times,serif" font-size="12.00">review_headline: </text>
<text text-anchor="start" x="530" y="-621.9" font-family="Times,serif" font-size="12.00">review_body: </text>
<text text-anchor="start" x="530" y="-608.9" font-family="Times,serif" font-size="12.00">review_date: </text>
</g>
<!-- 6&#45;&gt;7 -->
<g id="edge7" class="edge">
<title>6&#45;&gt;7</title>
<path fill="none" stroke="black" d="M558,-842.45C558,-834.41 558,-825.47 558,-816.12"/>
<polygon fill="black" stroke="black" points="561.5,-815.83 558,-805.83 554.5,-815.83 561.5,-815.83"/>
</g>
<!-- 8 -->
<g id="node9" class="node">
<title>8</title>
<polygon fill="none" stroke="black" points="0,-489.5 0,-564.5 1116,-564.5 1116,-489.5 0,-489.5"/>
<text text-anchor="middle" x="50" y="-523.9" font-family="Times,serif" font-size="12.00">8:text_feature</text>
<polyline fill="none" stroke="black" points="100,-489.5 100,-564.5 "/>
<text text-anchor="start" x="108" y="-536.9" font-family="Times,serif" font-size="12.00">product_title: </text>
<text text-anchor="start" x="108" y="-523.9" font-family="Times,serif" font-size="12.00">(&#39;product_title__number_of_unique_words&#39;, &lt;class &#39;featuretools.primitives.standard.transform.natural_language.number_of_unique_words.NumberOfUniqueWords&#39;&gt;)</text>
<text text-anchor="start" x="108" y="-510.9" font-family="Times,serif" font-size="12.00">(&#39;product_title__num_words&#39;, &lt;class &#39;featuretools.primitives.standard.transform.natural_language.num_words.NumWords&#39;&gt;)</text>
</g>
<!-- 7&#45;&gt;8 -->
<g id="edge8" class="edge">
<title>7&#45;&gt;8</title>
<path fill="none" stroke="black" d="M558,-601.5C558,-592.28 558,-583.27 558,-574.89"/>
<polygon fill="black" stroke="black" points="561.5,-574.66 558,-564.66 554.5,-574.66 561.5,-574.66"/>
</g>
<!-- 9 -->
<g id="node10" class="node">
<title>9</title>
<polygon fill="none" stroke="black" points="340,-416.5 340,-452.5 776,-452.5 776,-416.5 340,-416.5"/>
<text text-anchor="middle" x="368" y="-431.4" font-family="Times,serif" font-size="12.00">9:drop</text>
<polyline fill="none" stroke="black" points="396,-416.5 396,-452.5 "/>
<text text-anchor="middle" x="586" y="-431.4" font-family="Times,serif" font-size="12.00">[&#39;review_id&#39;, &#39;product_title&#39;, &#39;review_headline&#39;, &#39;review_body&#39;]</text>
</g>
<!-- 8&#45;&gt;9 -->
<g id="edge9" class="edge">
<title>8&#45;&gt;9</title>
<path fill="none" stroke="black" d="M558,-489.45C558,-480.48 558,-471.04 558,-462.61"/>
<polygon fill="black" stroke="black" points="561.5,-462.57 558,-452.57 554.5,-462.57 561.5,-462.57"/>
</g>
<!-- 10 -->
<g id="node11" class="node">
<title>10</title>
<polygon fill="none" stroke="black" points="108,-343.5 108,-379.5 1008,-379.5 1008,-343.5 108,-343.5"/>
<text text-anchor="middle" x="170.5" y="-358.4" font-family="Times,serif" font-size="12.00">10:onehot_encode</text>
<polyline fill="none" stroke="black" points="233,-343.5 233,-379.5 "/>
<text text-anchor="middle" x="620.5" y="-358.4" font-family="Times,serif" font-size="12.00">[&quot;marketplace: [&#39;US&#39;]&quot;, &quot;product_category: [&#39;Books&#39;, &#39;2013&#45;05&#45;20&#39;]&quot;, &quot;vine: [&#39;N&#39;, &#39;Y&#39;, None]&quot;, &quot;verified_purchase: [&#39;Y&#39;, &#39;N&#39;, None]&quot;]</text>
</g>
<!-- 9&#45;&gt;10 -->
<g id="edge10" class="edge">
<title>9&#45;&gt;10</title>
<path fill="none" stroke="black" d="M558,-416.31C558,-408.29 558,-398.55 558,-389.57"/>
<polygon fill="black" stroke="black" points="561.5,-389.53 558,-379.53 554.5,-389.53 561.5,-389.53"/>
</g>
<!-- 11 -->
<g id="node12" class="node">
<title>11</title>
<polygon fill="none" stroke="black" points="210,-219.5 210,-306.5 906,-306.5 906,-219.5 210,-219.5"/>
<text text-anchor="middle" x="258.5" y="-259.9" font-family="Times,serif" font-size="12.00">11:categorify</text>
<polyline fill="none" stroke="black" points="307,-219.5 307,-306.5 "/>
<text text-anchor="start" x="315" y="-278.9" font-family="Times,serif" font-size="12.00">marketplace: (&#39;pipeline_default/marketplace_categorify_dict&#39;, &#39;marketplace__idx&#39;)</text>
<text text-anchor="start" x="315" y="-265.9" font-family="Times,serif" font-size="12.00">product_category: (&#39;pipeline_default/product_category_categorify_dict&#39;, &#39;product_category__idx&#39;)</text>
<text text-anchor="start" x="315" y="-252.9" font-family="Times,serif" font-size="12.00">vine: (&#39;pipeline_default/vine_categorify_dict&#39;, &#39;vine__idx&#39;)</text>
<text text-anchor="start" x="315" y="-239.9" font-family="Times,serif" font-size="12.00">verified_purchase: (&#39;pipeline_default/verified_purchase_categorify_dict&#39;, &#39;verified_purchase__idx&#39;)</text>
<text text-anchor="start" x="315" y="-226.9" font-family="Times,serif" font-size="12.00">review_date: (&#39;pipeline_default/review_date_categorify_dict&#39;, &#39;review_date__idx&#39;)</text>
</g>
<!-- 10&#45;&gt;11 -->
<g id="edge11" class="edge">
<title>10&#45;&gt;11</title>
<path fill="none" stroke="black" d="M558,-343.25C558,-335.76 558,-326.55 558,-317.09"/>
<polygon fill="black" stroke="black" points="561.5,-316.8 558,-306.8 554.5,-316.8 561.5,-316.8"/>
</g>
<!-- 12 -->
<g id="node13" class="node">
<title>12</title>
<polygon fill="none" stroke="black" points="289.5,-146.5 289.5,-182.5 826.5,-182.5 826.5,-146.5 289.5,-146.5"/>
<text text-anchor="middle" x="321.5" y="-161.4" font-family="Times,serif" font-size="12.00">12:drop</text>
<polyline fill="none" stroke="black" points="353.5,-146.5 353.5,-182.5 "/>
<text text-anchor="middle" x="590" y="-161.4" font-family="Times,serif" font-size="12.00">[&#39;marketplace&#39;, &#39;product_category&#39;, &#39;vine&#39;, &#39;verified_purchase&#39;, &#39;review_date&#39;]</text>
</g>
<!-- 11&#45;&gt;12 -->
<g id="edge12" class="edge">
<title>11&#45;&gt;12</title>
<path fill="none" stroke="black" d="M558,-219.39C558,-210.41 558,-201.15 558,-192.91"/>
<polygon fill="black" stroke="black" points="561.5,-192.75 558,-182.75 554.5,-192.75 561.5,-192.75"/>
</g>
<!-- 13 -->
<g id="node14" class="node">
<title>13</title>
<polygon fill="none" stroke="black" points="464.5,-73.5 464.5,-109.5 651.5,-109.5 651.5,-73.5 464.5,-73.5"/>
<text text-anchor="middle" x="516.5" y="-88.4" font-family="Times,serif" font-size="12.00">13:DataFrame</text>
<polyline fill="none" stroke="black" points="568.5,-73.5 568.5,-109.5 "/>
<text text-anchor="middle" x="610" y="-88.4" font-family="Times,serif" font-size="12.00">main_table</text>
</g>
<!-- 12&#45;&gt;13 -->
<g id="edge13" class="edge">
<title>12&#45;&gt;13</title>
<path fill="none" stroke="black" d="M558,-146.31C558,-138.29 558,-128.55 558,-119.57"/>
<polygon fill="black" stroke="black" points="561.5,-119.53 558,-109.53 554.5,-119.53 561.5,-119.53"/>
</g>
<!-- 14 -->
<g id="node15" class="node">
<title>14</title>
<polygon fill="none" stroke="black" points="249,-0.5 249,-36.5 867,-36.5 867,-0.5 249,-0.5"/>
<text text-anchor="middle" x="293.5" y="-15.4" font-family="Times,serif" font-size="12.00">14:lightgbm</text>
<polyline fill="none" stroke="black" points="338,-0.5 338,-36.5 "/>
<text text-anchor="middle" x="602.5" y="-15.4" font-family="Times,serif" font-size="12.00">[&#39;label: star_rating&#39;, &#39;objective: regression&#39;, &#39;train_test_splitter: None&#39;, &#39;metrics: rmse&#39;]</text>
</g>
<!-- 13&#45;&gt;14 -->
<g id="edge14" class="edge">
<title>13&#45;&gt;14</title>
<path fill="none" stroke="black" d="M558,-73.31C558,-65.29 558,-55.55 558,-46.57"/>
<polygon fill="black" stroke="black" points="561.5,-46.53 558,-36.53 554.5,-46.53 561.5,-46.53"/>
</g>
</g>
</svg>
